<svg width="65" height="23" viewBox="0 0 65 23" fill="none" xmlns="http://www.w3.org/2000/svg">
<path d="M17.5303 11.1133C15.5587 9.77074 13.0299 10.3163 11.7073 12.3393C10.599 14.0251 8.92743 14.2336 8.27839 14.2336C6.17205 14.2336 4.72701 12.7501 4.29839 11.2114C4.29839 11.2114 4.29227 11.1868 4.28615 11.1684C4.28615 11.1501 4.28002 11.1317 4.2739 11.1133C4.10858 10.4696 4.06572 10.1631 4.06572 9.48262C4.06572 5.80446 7.8314 1.70944 13.2564 1.70944C18.6815 1.70944 21.9941 5.94545 22.8145 8.29948C22.8023 8.25657 22.7901 8.21978 22.7717 8.17687C21.1919 3.57304 16.8323 0.262695 11.7012 0.262695C5.24135 0.268826 0 5.5102 0 11.9838C0 17.7646 4.16369 22.7179 9.94386 22.7179C14.5545 22.7179 17.6528 20.1309 19.0734 16.5631C19.851 14.6137 19.2999 12.3209 17.5303 11.1133Z" fill="#003668"/>
<path d="M22.888 8.53268C22.2083 6.23383 18.9998 1.71582 13.2625 1.71582C7.83746 1.71582 4.07178 5.81084 4.07178 9.489C4.07178 10.1695 4.11464 10.476 4.27996 11.1197C4.21261 10.8377 4.16975 10.5557 4.16975 10.2859C4.16975 6.45452 8.00279 3.80624 11.9338 3.80624C17.2609 3.80624 21.5837 8.13421 21.5837 13.4675C21.5837 17.6484 19.1774 21.2714 15.6872 23.0062C20.1877 21.3756 23.4023 17.0599 23.4023 11.9901C23.4023 10.7886 23.2431 9.73421 22.888 8.54494V8.53268Z" fill="#E6002D"/>
<path d="M32.3847 15.4659V12.1126H33.6522V15.4659H35.4585V12.1126H36.7382V15.4659H39.9467V16.6429H30.0273V15.4659H32.3847ZM37.8036 13.5655V8.37927H30.8233V7.17773H39.1507V13.5593H37.8036V13.5655Z" fill="#595757"/>
<path d="M51.2745 14.1296V17.4645H49.9335V15.2821H42.6961V14.1296H44.4166L44.4289 12.8668H42.1572V11.702H52.0827V12.8668H49.7927V14.1296H51.2806H51.2745ZM49.7743 8.85146C49.7743 9.18863 49.7008 9.5074 49.5539 9.80779C49.4069 10.1082 49.2171 10.3718 48.9844 10.6047C48.7456 10.8254 48.4579 10.9971 48.1395 11.1319C47.8149 11.2668 47.4721 11.3342 47.1108 11.3342C46.7495 11.3342 46.4005 11.2668 46.076 11.1319C45.7515 10.9971 45.4637 10.8254 45.2249 10.6047C44.9922 10.3718 44.8024 10.102 44.6554 9.80779C44.5085 9.5074 44.435 9.18863 44.435 8.85146C44.435 8.5143 44.5085 8.19553 44.6554 7.89514C44.8024 7.59476 44.9922 7.33116 45.2249 7.09821C45.4637 6.87139 45.7515 6.69361 46.076 6.55874C46.4005 6.42388 46.7495 6.35645 47.1108 6.35645C47.4721 6.35645 47.8149 6.42388 48.1395 6.55874C48.464 6.69361 48.7456 6.87139 48.9844 7.09821C49.2171 7.33116 49.4069 7.60089 49.5539 7.89514C49.7008 8.19553 49.7743 8.5143 49.7743 8.85146ZM45.6474 14.1296H48.5497V12.8668H45.6596L45.6474 14.1296ZM48.4579 8.85146C48.4579 8.48978 48.3293 8.17714 48.066 7.92579C47.8088 7.67445 47.4904 7.54572 47.1169 7.54572C46.7434 7.54572 46.425 7.67445 46.1617 7.92579C45.8984 8.18327 45.7637 8.48978 45.7637 8.85146C45.7637 9.21315 45.8984 9.52579 46.1617 9.78327C46.425 10.0407 46.7434 10.1695 47.1169 10.1695C47.4904 10.1695 47.8088 10.0407 48.066 9.78327C48.3293 9.52579 48.4579 9.21315 48.4579 8.85146Z" fill="#595757"/>
<path d="M54.397 13.4619H64.3225V14.6512H60.0241V17.4404H58.6831V14.6512H54.397V13.4619ZM56.5156 8.1776H62.1916V6.81055H63.5203V12.009H55.193V6.81055H56.5156V8.1776ZM62.1916 9.34235H56.5156V10.832H62.1916V9.34235Z" fill="#595757"/>
</svg>
