<svg width="1920" height="1594" viewBox="0 0 1920 1594" fill="none" xmlns="http://www.w3.org/2000/svg">
<path opacity="0.5" d="M953.482 285.845C921.528 263.463 885.305 247.464 846.416 239.079C721.232 212.749 593.607 255.383 476.227 302.661C434.093 319.69 381.279 313.225 372.438 252.506C366.416 208.44 367.275 167.241 337.745 132.767C228.904 6.55604 64.738 177.304 19.6611 293.231C-0.755546 345.981 -11.3343 406.551 -44.0894 451.44C-86.866 510.102 -156.862 537.942 -208.329 585.103C-263.444 635.904 -301.238 708.587 -308.758 790.287C-317.004 883.505 -263.586 969.051 -193.865 1007.54C-82.7746 1068.4 53.3188 1086.74 173.321 1109.63C316.442 1137.11 476.195 1170.12 620.373 1145.83C759.024 1122.39 900.311 1044.36 987.211 912.778C1065.57 793.958 1105.2 641.116 1078.15 491.819C1062.74 401.91 1016.43 330.679 953.482 285.845Z" fill="#FFFCD3"/>
<path opacity="0.5" fill-rule="evenodd" clip-rule="evenodd" d="M1800.72 1049.06C1737.03 1054.93 1664.57 1045.97 1638.44 987.716C1612.24 929.286 1653.25 868.762 1700.4 825.336C1749.9 779.753 1814.66 739.64 1874.6 770.234C1942.45 804.871 1979.9 884.488 1960.41 958.051C1943.09 1023.44 1868.19 1042.84 1800.72 1049.06Z" fill="#FFDD95"/>
</svg>
