<svg width="550" height="392" viewBox="0 0 550 392" fill="none" xmlns="http://www.w3.org/2000/svg">
<path d="M135.762 359.735H111.232V369.208C111.232 371.721 111.318 374.224 110.986 376.006C110.256 379.325 106.776 380.539 100.3 379.894V359.735H78.6051C76.7467 359.735 75.8553 358.844 75.8553 357.061V350.993H133.012C134.871 350.993 135.762 351.884 135.762 353.667V359.735ZM85.8114 336.979C84.5977 332.2 84.9201 323.135 86.5415 316.498H123.862C125.645 316.498 126.612 317.389 126.612 319.172V342.251C119.084 345.731 109.203 346.622 101.428 346.053C92.3634 345.408 87.1768 342.488 85.8019 336.988L85.8114 336.979ZM95.1985 324.832C94.3925 334.305 95.9286 336.656 102.244 337.462C106.861 338.031 112.361 337.785 116.979 336.571V324.832H95.1985Z" fill="#318451" stroke="#318451" stroke-width="0.410309" stroke-miterlimit="10" stroke-linecap="round"/>
<path d="M175.596 360.153C169.926 361.044 163.127 361.29 156.812 360.883C148.553 360.399 144.505 357.886 143.452 352.539C142.807 348.973 143.13 343.389 143.86 339.264H161.591V334.248H145.879C144.021 334.248 143.13 333.357 143.13 331.574V326.397H168.797C170.419 326.397 171.31 327.288 171.31 329.071V346.802H152.687C152.612 347.94 152.612 349.068 152.773 349.874C153.095 351.496 154.309 352.14 158.282 352.463C163.705 352.87 168.238 352.624 172.533 352.387C174.477 352.226 175.605 353.193 175.605 354.975V360.153H175.596ZM193.649 372.707C193.649 375.381 193.896 383.478 193.327 386.873C192.758 390.277 189.525 391.566 183.608 390.836V373.911H154.783C152.924 373.911 152.033 373.02 152.033 371.237V364.998H190.9C192.758 364.998 193.649 365.889 193.649 367.672V372.688V372.707ZM183.447 348.006C176.326 348.49 174.458 347.523 173.567 345.816C172.837 344.356 172.922 341.198 173.813 338.856H183.447V323.315H190.9C192.758 323.315 193.649 324.207 193.649 325.989V349.874C193.649 353.515 193.811 356.028 193.327 358.218C192.597 361.622 189.686 362.836 183.447 362.182V348.016V348.006Z" fill="#318451" stroke="#318451" stroke-width="0.410309" stroke-miterlimit="10" stroke-linecap="round"/>
<path d="M263.683 359.735H239.153V369.208C239.153 371.721 239.238 374.224 238.907 376.006C238.176 379.325 234.697 380.539 228.22 379.894V359.735H206.526C204.667 359.735 203.776 358.844 203.776 357.061V350.993H260.933C262.792 350.993 263.683 351.884 263.683 353.667V359.735ZM213.723 336.979C212.509 332.2 212.831 323.135 214.453 316.498H251.774C253.556 316.498 254.523 317.389 254.523 319.172V342.251C246.995 345.731 237.114 346.622 229.339 346.053C220.275 345.408 215.088 342.488 213.713 336.988L213.723 336.979ZM223.119 324.832C222.313 334.305 223.849 336.656 230.164 337.462C234.782 338.031 240.281 337.785 244.899 336.571V324.832H223.119Z" fill="#318451" stroke="#318451" stroke-width="0.410309" stroke-miterlimit="10" stroke-linecap="round"/>
<path d="M303.507 340.847C297.837 341.739 291.039 341.985 284.724 341.577C276.465 341.094 272.416 338.581 271.364 333.233C270.719 329.668 271.041 324.083 271.771 319.959H289.503V314.943H273.791C271.932 314.943 271.041 314.051 271.041 312.269V307.092H296.709C298.33 307.092 299.222 307.983 299.222 309.766V327.497H280.599C280.514 328.635 280.514 329.763 280.675 330.569C280.997 332.19 282.211 332.835 286.184 333.158C291.608 333.565 296.14 333.319 300.435 333.082C302.379 332.92 303.507 333.888 303.507 335.67V340.847ZM321.57 353.401C321.57 356.075 321.817 364.173 321.248 367.567C320.679 370.971 317.446 372.261 311.529 371.531V354.606H282.704C280.846 354.606 279.954 353.714 279.954 351.932V345.693H318.821C320.679 345.693 321.57 346.584 321.57 348.367V353.382V353.401ZM311.368 328.701C304.247 329.185 302.379 328.217 301.488 326.511C300.758 325.05 300.843 321.893 301.734 319.551H311.368V304.01H318.821C320.679 304.01 321.57 304.901 321.57 306.684V330.569C321.57 334.21 321.732 336.723 321.248 338.913C320.518 342.317 317.607 343.531 311.368 342.876V328.71V328.701Z" fill="#318451" stroke="#318451" stroke-width="0.410309" stroke-miterlimit="10" stroke-linecap="round"/>
<path d="M386.095 345.721C380.264 347.257 371.114 347.741 365.453 347.02C358.161 345.968 354.122 343.133 352.984 337.462C351.932 332.769 352.178 322.642 353.145 316.735H360.19C361.888 316.735 362.703 317.626 362.542 319.485C362.295 322.557 362.134 329.204 362.457 332.2C362.864 335.518 364.637 337.14 368.041 337.87C372.251 338.6 378.405 338.117 382.454 337.548C384.72 337.225 386.095 338.117 386.095 339.975V345.721ZM396.212 353.335C397.91 353.335 398.801 354.141 398.801 355.848V375.523C394.183 379.818 384.957 382.16 375.324 381.591C366.259 381.022 360.664 377.704 358.967 371.635C357.507 366.534 358.398 358.598 359.773 353.335H396.203H396.212ZM388.845 361.916H368.117C367.387 368.07 368.847 370.82 373.38 371.958C378.234 373.171 385.118 372.527 388.845 370.583V361.916ZM399.446 335.765C405.922 334.798 408.112 335.604 408.918 337.709C409.724 339.728 409.487 342.81 407.941 344.915H399.36L399.114 346.129C398.384 349.533 395.549 350.746 389.395 350.092V313.663H396.686C398.545 313.663 399.436 314.554 399.436 316.337V320.3C405.912 319.333 408.103 320.139 408.909 322.244C409.715 324.263 409.477 327.345 407.932 329.45H399.427V335.765H399.446Z" fill="#318451" stroke="#318451" stroke-width="0.410309" stroke-miterlimit="10" stroke-linecap="round"/>
<path d="M450.051 355.383C444.219 356.919 435.069 357.403 429.408 356.682C422.117 355.63 418.068 352.795 416.94 347.124C415.887 342.431 416.134 332.304 417.101 326.397H424.146C425.843 326.397 426.659 327.288 426.497 329.147C426.251 332.228 426.09 338.866 426.412 341.862C426.82 345.181 428.593 346.802 431.997 347.532C436.207 348.262 442.361 347.779 446.409 347.21C448.676 346.887 450.051 347.779 450.051 349.637V355.383ZM460.168 362.988C461.865 362.988 462.756 363.794 462.756 365.5V385.175C458.139 389.471 448.913 391.813 439.279 391.244C430.214 390.675 424.62 387.356 422.923 381.288C421.462 376.187 422.354 368.25 423.729 362.988H460.158H460.168ZM452.8 371.569H432.073C431.343 377.723 432.803 380.472 437.335 381.61C442.19 382.824 449.074 382.179 452.8 380.235V371.569ZM463.411 345.418C469.887 344.45 472.077 345.256 472.883 347.361C473.689 349.381 473.452 352.463 471.906 354.568H463.325L463.079 355.781C462.349 359.185 459.514 360.399 453.36 359.745V323.315H460.651C462.51 323.315 463.401 324.207 463.401 325.989V329.953C469.877 328.985 472.068 329.791 472.874 331.896C473.68 333.916 473.442 336.998 471.897 339.103H463.401V345.418H463.411Z" fill="#318451" stroke="#318451" stroke-width="0.410309" stroke-miterlimit="10" stroke-linecap="round"/>
<path d="M48.7657 367.852C48.7657 367.852 28.9011 350.547 50.3872 330.512C50.3872 330.512 67.2935 347.779 48.7657 367.852Z" fill="#B8D670"/>
<path d="M48.6618 367.918C48.6618 367.918 33.7182 346.224 11.3788 365.301C11.3788 365.301 26.6257 384.057 48.6618 367.918Z" fill="#B8D670"/>
<path d="M501.68 367.852C501.68 367.852 521.545 350.547 500.059 330.512C500.059 330.512 483.153 347.779 501.68 367.852Z" fill="#B8D670"/>
<path d="M501.785 367.918C501.785 367.918 516.728 346.224 539.068 365.301C539.068 365.301 523.821 384.057 501.785 367.918Z" fill="#B8D670"/>
<path d="M11.0245 81.9714C43.9647 76.7563 77.0283 72.5368 110.158 69.3224C110.67 74.5754 111.182 79.8284 111.685 85.0814C105.133 85.7167 98.5712 86.3899 92.0287 87.1106C92.7588 93.7764 93.4889 100.433 94.2095 107.098C87.6006 107.819 80.9917 108.587 74.3923 109.384C73.5863 102.727 72.7709 96.0805 71.9649 89.4242C65.631 90.1922 59.3065 90.9982 52.9821 91.842C53.8734 98.4889 54.7552 105.126 55.6465 111.773C49.047 112.655 42.4571 113.575 35.8671 114.542C34.9 107.914 33.9328 101.277 32.9562 94.6487C26.4611 95.5969 19.9754 96.583 13.4898 97.6071C12.6648 92.392 11.8399 87.1769 11.015 81.9619L11.0245 81.9714ZM63.3932 12.5161C81.6175 10.2879 99.472 12.1369 101.7 34.9409C103.929 57.745 87.4015 62.9885 69.7746 65.1409C62.9855 65.9658 56.2059 66.8287 49.4358 67.739C31.8278 70.081 14.4759 69.1518 10.9107 46.5184C7.34546 23.885 24.1949 17.6079 42.4097 15.19C49.4074 14.2513 56.3955 13.36 63.4027 12.5161H63.3932ZM69.016 48.832C78.9626 47.6372 81.7882 44.1858 81.0012 37.1502C80.2142 30.1241 76.649 27.3364 66.5697 28.5406C58.8229 29.4698 51.0857 30.4654 43.3484 31.499C33.2881 32.8644 30.5288 36.458 31.5339 43.4557C32.539 50.4629 36.1421 53.1083 46.0697 51.7619C53.7122 50.7378 61.3641 49.7612 69.016 48.832Z" fill="#EE7425"/>
<path d="M109.239 15.8159C116.928 15.0858 124.618 14.4126 132.318 13.7867C131.986 9.71899 131.663 5.65124 131.332 1.58348C138.367 1.01457 145.412 0.483579 152.457 0C152.732 4.06775 153.017 8.14499 153.292 12.2127C161.029 11.6818 168.766 11.2077 176.513 10.781C176.807 16.0529 177.091 21.3249 177.385 26.5968C174.105 26.777 170.824 26.9666 167.543 27.1658C172.35 31.3757 174.702 37.8804 175.233 47.1916C176.153 63.4152 177.082 79.6388 178.002 95.8624C171.355 96.2417 164.708 96.6589 158.061 97.1235C156.705 77.5528 155.349 57.9821 153.993 38.4113C153.567 32.1438 151.101 28.5881 144.436 28.7398C144.104 28.7682 143.772 28.7872 143.44 28.8156C136.945 29.6405 135.143 33.5187 135.646 39.7862C137.21 59.338 138.784 78.8992 140.349 98.451C133.711 98.982 127.065 99.5604 120.427 100.167C118.929 83.991 117.431 67.8054 115.933 51.6292C115.07 42.3463 116.435 35.5573 120.56 30.6836C117.279 30.9775 114.008 31.2714 110.737 31.5843C110.244 26.3313 109.741 21.0689 109.248 15.8159H109.239ZM188.792 3.07215C195.818 2.74028 202.854 2.44634 209.88 2.19981C210.961 32.8834 212.042 63.5575 213.123 94.241C206.466 94.4781 199.81 94.753 193.163 95.0659C191.703 64.4013 190.252 33.7367 188.792 3.07215Z" fill="#EE7425"/>
<path d="M220.794 44.2143C245.75 43.4747 270.716 43.2945 295.682 43.6738C295.606 48.576 295.53 53.4782 295.464 58.3898C287.613 58.2665 279.762 58.2096 271.911 58.2002C271.911 63.5954 271.901 68.9811 271.892 74.3763C265.16 74.3763 258.418 74.4048 251.686 74.4806C251.629 69.0854 251.563 63.6997 251.506 58.3045C241.417 58.4182 231.319 58.6268 221.23 58.9208C221.088 54.0186 220.936 49.1165 220.794 44.2143ZM249.96 38.7811C236.79 38.9329 224.549 36.5813 224.074 19.969C223.591 3.35661 236.003 0.303425 249.496 0.151714C254.549 0.0948225 259.603 0.0474128 264.657 0.0379308C278.15 -0.0189608 290.6 2.84459 290.382 19.4664C290.154 36.0883 277.96 38.6199 264.79 38.6768C259.85 38.6958 254.91 38.7337 249.97 38.7906L249.96 38.7811ZM249.989 76.633C250.036 80.568 250.69 81.5637 254.654 81.5257C276.054 81.3171 297.465 81.5352 318.856 82.1705C318.704 87.4425 318.543 92.7239 318.391 97.9959C294.554 97.2847 270.707 97.1046 246.86 97.4554C237.122 97.5976 230.266 94.753 229.944 82.2843C229.811 76.8227 229.678 71.3516 229.536 65.89C236.306 65.7193 243.076 65.5961 249.846 65.5107C249.894 69.2182 249.941 72.9256 249.989 76.633ZM265.179 23.3825C268.165 23.3825 269.502 22.3679 269.493 19.3337C269.493 16.2995 268.156 15.2849 265.15 15.2944C259.84 15.3133 254.54 15.3513 249.23 15.4176C246.224 15.4556 244.906 16.4891 244.944 19.5233C244.992 22.5575 246.338 23.5437 249.325 23.5057C254.606 23.4394 259.888 23.4014 265.169 23.3825H265.179ZM276.453 61.9171C283.564 61.9455 290.676 62.0119 297.787 62.1352C298.119 41.8817 298.46 21.6283 298.792 1.38437C305.828 1.49815 312.863 1.65934 319.889 1.86795C319.159 27.3175 318.42 52.767 317.69 78.207C310.967 78.0174 304.254 77.8562 297.531 77.7519C297.531 77.2683 297.55 76.7753 297.56 76.2917C290.514 76.1779 283.46 76.1021 276.405 76.0736C276.424 71.3516 276.443 66.6391 276.462 61.9171H276.453Z" fill="#EE7425"/>
<path d="M329.523 37.7855C354.318 38.6579 379.104 40.0801 403.852 42.0524C404.241 37.1218 404.639 32.2006 405.028 27.27C405.341 23.354 404.753 22.292 400.647 21.9696C379.635 20.3577 358.604 19.1345 337.554 18.3001C337.763 13.0282 337.972 7.74672 338.18 2.47476C362.226 3.42296 386.254 4.88318 410.262 6.84594C420.569 7.68983 427.462 11.3878 426.305 23.7996C425.689 30.4749 425.082 37.1502 424.466 43.816C426.514 44.0057 428.553 44.1953 430.601 44.3944C430.136 49.2776 429.662 54.1608 429.197 59.044C395.859 55.8581 362.444 53.6678 329.011 52.492C329.182 47.5898 329.352 42.6877 329.533 37.7855H329.523ZM354.954 65.8615C370.589 66.658 386.216 67.6821 401.823 68.9242C401.984 66.9425 402.136 64.9702 402.297 62.9885C409.086 63.529 415.866 64.1074 422.645 64.7332C421.963 72.1481 421.28 79.5724 420.597 86.9873C418.767 106.312 395.916 103.097 376.127 101.846C356.348 100.509 333.278 100.717 333.989 81.3171C334.283 73.8738 334.568 66.4305 334.861 58.9871C341.66 59.2526 348.459 59.556 355.257 59.9069C355.153 61.8886 355.058 63.8703 354.954 65.8521V65.8615ZM400.695 83.0333C385.22 81.8007 369.727 80.7861 354.224 79.9896C354.224 80.0655 354.224 80.1413 354.214 80.2172C353.93 85.9538 362.018 86.7597 377.047 87.7364C392.085 88.732 400.211 88.9785 400.676 83.2609C400.676 83.1851 400.685 83.1092 400.695 83.0333Z" fill="#EE7425"/>
<path d="M478.854 38.1743C479.631 31.9351 477.251 28.4553 470.168 27.6209C463.189 26.7959 460.07 29.6216 459.368 35.8702C458.354 44.878 457.348 53.8764 456.334 62.8842C449.545 62.1256 442.746 61.405 435.948 60.7223C436.763 52.5299 437.588 44.328 438.404 36.1356C440.309 16.7166 449.64 9.28279 472.027 11.8903C494.518 14.5832 501.876 23.9893 499.202 43.3135C498.083 51.4774 496.974 59.6319 495.855 67.7958C489.075 66.8666 482.295 65.9848 475.506 65.1409C476.625 56.152 477.735 47.1537 478.854 38.1648V38.1743ZM506.721 97.6829C507.29 93.7953 506.797 92.6954 502.852 92.136C483.386 89.3578 463.882 86.9209 444.339 84.8444C444.899 79.5914 445.458 74.3479 446.018 69.0949C468.442 71.4843 490.82 74.3289 513.159 77.6286C523.058 79.0983 529.468 83.1945 527.505 95.5021C526.358 102.746 525.211 110 524.063 117.244C517.483 116.201 510.903 115.196 504.313 114.238C505.119 108.72 505.925 103.201 506.73 97.6734L506.721 97.6829ZM518.175 19.1061C525.154 20.1206 532.133 21.1826 539.102 22.292C536.248 40.2982 533.394 58.3044 530.549 76.3201C523.798 75.2487 517.047 74.2246 510.296 73.2385C512.922 55.1944 515.558 37.1502 518.185 19.1156L518.175 19.1061Z" fill="#EE7425"/>
<path d="M52.5679 170.068C52.5679 161.838 48.9647 157.723 39.8905 157.723C30.8163 157.723 27.0709 161.838 27.0709 170.068V258.98H0V173.301C0 147.729 10.9422 137.005 39.8905 137.005C68.8389 137.005 79.6388 147.729 79.6388 173.301V258.98H52.5679V170.068ZM89.8698 138.465H116.941V181.522H135.231V202.24H116.941V258.961H89.8698V138.455V138.465Z" fill="#232E5E"/>
<path d="M179.303 167.717C179.303 160.226 177.435 157.723 172.827 157.723C168.219 157.723 166.351 160.216 166.351 167.717V205.635H141.148V170.362C141.148 144.353 150.507 137.005 172.837 137.005C195.167 137.005 204.525 144.353 204.525 170.362V205.635H179.322V167.717H179.303ZM187.941 265.731C170.656 265.731 154.669 260.734 154.669 241.192C154.669 221.65 170.656 216.653 187.941 216.653H235.18C252.466 216.653 268.453 221.65 268.453 241.192C268.453 260.734 252.466 265.731 235.18 265.731H187.941ZM235.759 245.013C239.646 245.013 241.372 244.132 241.372 241.192C241.372 238.253 239.646 237.371 235.759 237.371H187.373C183.485 237.371 181.759 238.253 181.759 241.192C181.759 244.132 183.485 245.013 187.373 245.013H235.759ZM211.134 138.465H236.773V164.038H242.102V138.465H267.741V210.034H242.102V184.756H236.773V210.034H211.134V138.465Z" fill="#232E5E"/>
<path d="M345.645 215.031V225.613C345.645 251.622 336.287 258.971 313.957 258.971C291.627 258.971 282.268 251.622 282.268 225.613V138.465H344.195V159.183H307.898V228.249C307.898 235.74 309.339 238.243 313.947 238.243C318.555 238.243 319.997 235.75 319.997 228.249V215.022H345.636L345.645 215.031ZM352.273 138.465H377.912V184.613H383.241V138.465H408.88V258.971H383.241V205.331H377.912V258.971H352.273V138.465Z" fill="#232E5E"/>
<path d="M421.254 238.253H456.394V229.292C432.775 225.329 427.74 210.48 427.74 204.013V197.405C427.74 189.62 434.936 171.102 470.077 171.102C505.217 171.102 512.413 189.62 512.413 197.405V204.013C512.413 210.916 507.085 225.319 483.465 229.292V238.253H519.762V258.971H421.254V238.253ZM424.857 145.813H456.83V131.704H483.901V145.813H516.017V166.531H424.857V145.813ZM485.342 201.804V199.604C485.342 194.465 479.871 191.82 470.077 191.82C460.282 191.82 454.811 194.465 454.811 199.604V201.804C454.811 206.943 460.282 209.589 470.077 209.589C479.871 209.589 485.342 206.943 485.342 201.804ZM522.929 138.465H550V258.971H522.929V138.465Z" fill="#232E5E"/>
</svg>
