<svg width="116" height="15" viewBox="0 0 116 15" fill="none" xmlns="http://www.w3.org/2000/svg">
<path d="M86.1575 2.28957C86.1575 1.60272 85.3414 1.03772 84.6508 1.03772H75.526V2.81763H84.108V10.181H82.3022V5.91955H80.3192V10.181H78.868V5.91955H76.8886V10.181H74.6767V11.9609H86.9994V10.181H86.1575C86.1575 6.93137 86.1575 2.28957 86.1575 2.28957Z" fill="#8A8A8A"/>
<path d="M70.0015 14.6825H72.0362V1.03772H70.0015V14.6825Z" fill="#8A8A8A"/>
<path d="M64.5511 0.908359C64.2114 0.908359 63.9529 1.0376 63.6574 1.35518C63.6574 1.35518 59.7099 5.77173 59.3628 6.15947L60.862 7.48885C61.2091 7.10111 64.5437 3.36773 64.5437 3.36773C64.5437 3.36773 67.8893 7.10112 68.2291 7.49625L69.7283 6.15947C69.1043 5.44677 65.5112 1.42534 65.5112 1.42165C65.1678 1.05976 64.8834 0.904663 64.5548 0.904663L64.5511 0.908359Z" fill="#8A8A8A"/>
<path d="M22.6161 7.20436C22.6899 7.13789 24.0673 5.91189 24.1375 5.84543C23.783 5.4503 20.1899 1.42888 20.1899 1.42519C19.8502 1.0633 19.5621 0.908203 19.2372 0.908203C18.9122 0.908203 18.639 1.03745 18.3435 1.35502C18.3435 1.35502 14.3923 5.77156 14.3221 5.84911C14.3923 5.91189 15.7771 7.1342 15.8472 7.19698C15.9174 7.11943 19.2372 3.41558 19.2372 3.41558C19.2372 3.41558 22.5422 7.12311 22.6161 7.20066V7.20436Z" fill="#8A8A8A"/>
<path d="M113.325 1.03772V3.12782H111.453V4.75264H113.325V7.70685H115.375V1.03772H113.325Z" fill="#8A8A8A"/>
<path d="M110.496 7.47416C108.414 7.74373 106.818 9.30946 106.818 11.2112C106.818 13.3013 108.746 14.9963 111.128 14.9963C113.51 14.9963 115.437 13.3013 115.437 11.2112C115.437 9.12113 113.51 7.42615 111.128 7.42615C110.962 7.42615 110.799 7.43723 110.637 7.452L110.496 7.47046V7.47416ZM111.128 13.2312C109.88 13.2312 108.872 12.3301 108.872 11.2149C108.872 10.0997 109.88 9.19867 111.128 9.19867C112.376 9.19867 113.384 10.0997 113.384 11.2149C113.384 12.3301 112.372 13.2312 111.128 13.2312Z" fill="#8A8A8A"/>
<path d="M56.3828 8.75916C56.3828 8.75916 47.9116 8.75916 47.8082 8.75916V10.5501H55.5815V14.6787H57.6236C57.6236 14.1727 57.6199 10.011 57.6199 10.011C57.6199 9.32046 57.0696 8.75916 56.3828 8.75916Z" fill="#8A8A8A"/>
<path d="M55.5851 7.77691H57.6199V1.03394H55.5851V2.00513H53.9973V3.71857H55.5851V4.94087H53.9973V6.68386H55.5851V7.77323V7.77691Z" fill="#8A8A8A"/>
<path d="M53.1662 4.0878C53.1662 2.18603 51.4602 0.642456 49.3479 0.642456C47.2357 0.642456 45.5296 2.18603 45.5296 4.0878C45.5296 5.98957 47.2393 7.53315 49.3479 7.53315C51.4565 7.53315 53.1662 5.98957 53.1662 4.0878ZM47.5791 4.0878C47.5791 3.16092 48.373 2.41128 49.3516 2.41128C50.3302 2.41128 51.1241 3.16092 51.1241 4.0878C51.1241 5.01468 50.3302 5.76432 49.3516 5.76432C48.373 5.76432 47.5791 5.01468 47.5791 4.0878Z" fill="#8A8A8A"/>
<path d="M2.55327 7.49252H10.7217C11.4528 7.49252 11.9366 6.98292 11.9366 6.24806V1.04126H9.89817V2.54052H3.33983V1.04126H1.30511V6.24436C1.30511 6.93121 1.86641 7.49252 2.55327 7.49252ZM3.33983 4.25765H9.89817V5.70892H3.33983V4.25765Z" fill="#8A8A8A"/>
<path d="M0.429932 10.3692H5.57764V14.9926H7.61605V10.3692H12.749V8.59302H0.429932V10.3692Z" fill="#8A8A8A"/>
<path d="M110.408 7.25243L107.55 4.23914C107.55 4.23914 104.743 7.15641 104.666 7.23396C104.595 7.16011 103.329 5.86396 103.266 5.80118C103.336 5.73102 105.951 3.01683 105.951 3.01683H103.75V1.32554H106.553V0.0183105H108.576V1.32554H111.353V3.01683H109.078C109.078 3.01683 111.685 5.71993 111.804 5.84179L110.408 7.25613V7.25243Z" fill="#8A8A8A"/>
<path d="M28.2512 4.84489V3.09453H26.7077V1.03027H24.6545V10.4911H26.704V4.84121H28.2512V4.84489Z" fill="#8A8A8A"/>
<path d="M19.0783 12.8913V8.58923H17.0399V13.4194C17.0399 14.1099 17.6012 14.6712 18.2917 14.6712H26.8441V12.8913H19.0783Z" fill="#8A8A8A"/>
<path d="M42.1028 4.8781H43.6575V3.12773H42.1028V1.03394H40.0681V6.00439H38.3916V2.34856C38.3916 1.57308 37.8303 1.03394 37.1398 1.03394H30.9987V2.81384H36.3606V6.00069H34.3444V4.22448H32.3096V6.00069H30.4596V7.75845H36.0799C34.5659 8.3456 33.5135 9.6713 33.5135 11.2149C33.5135 13.305 35.4448 15 37.8229 15C40.2011 15 42.1324 13.305 42.1324 11.2149C42.1324 9.6713 41.0799 8.3493 39.5696 7.75845H42.0955V4.8781H42.1028ZM37.8303 13.2311C36.5822 13.2311 35.574 12.3301 35.574 11.2149C35.574 10.0997 36.5822 9.19863 37.8303 9.19863C39.0785 9.19863 40.0866 10.0997 40.0866 11.2149C40.0866 12.3301 39.0748 13.2311 37.8303 13.2311Z" fill="#8A8A8A"/>
<path d="M101.722 7.90252V6.12261H98.5171C99.2667 5.47268 99.7283 4.57534 99.7283 3.58198C99.7283 1.60636 97.893 0 95.6293 0C95.4706 0 95.3155 0.011081 95.1604 0.025852L95.0274 0.0443113C93.0481 0.299112 91.5267 1.78361 91.5267 3.58198C91.5267 4.57534 91.992 5.47637 92.7379 6.12261H89.3886V7.90252H92.0769V9.35008H90.2268V11.13C90.0828 11.13 98.794 11.13 98.794 11.13V14.6677H100.847C100.847 14.1839 100.847 10.6019 100.847 10.6019C100.847 9.91508 100.286 9.35377 99.5991 9.35377H99.1522V7.90621H101.719L101.722 7.90252ZM95.633 1.76145C96.7593 1.76145 97.6714 2.57755 97.6714 3.58198C97.6714 4.58642 96.7556 5.40251 95.633 5.40251C94.5104 5.40251 93.5946 4.58642 93.5946 3.58198C93.5946 2.57755 94.5068 1.76145 95.633 1.76145ZM97.1175 9.35008H94.119V7.90252H97.1175V9.35008Z" fill="#8A8A8A"/>
</svg>
