<svg width="184" height="38" viewBox="0 0 184 38" fill="none" xmlns="http://www.w3.org/2000/svg">
<path d="M51.6976 27.0018H50.6776V26.9318H51.6976V27.0018ZM49.6576 27.0018H48.6376V26.9318H49.6576V27.0018ZM47.6076 27.0018H46.5876V26.9318H47.6076V27.0018ZM45.5576 27.0018H44.5376V26.9318H45.5576V27.0018Z" fill="#8A8A8A"/>
<path d="M41.4676 14.4317C41.1976 14.4317 40.9976 14.3417 40.8676 14.1517C40.7376 13.9617 40.6776 13.7417 40.6776 13.4817C40.6776 13.2217 40.7376 13.0017 40.8676 12.8117C40.9976 12.6217 41.1976 12.5317 41.4676 12.5317H44.4176V11.6617C44.4176 11.3317 44.5376 11.0917 44.7676 10.9417C44.9976 10.7917 45.2576 10.7117 45.5576 10.7117C45.8576 10.7117 46.1176 10.7917 46.3376 10.9417C46.5676 11.0917 46.6776 11.3317 46.6776 11.6617V12.5317H49.4476C49.7176 12.5317 49.9176 12.6217 50.0476 12.8117C50.1776 13.0017 50.2476 13.2217 50.2476 13.4817C50.2476 13.7417 50.1876 13.9617 50.0476 14.1517C49.9176 14.3417 49.7176 14.4317 49.4476 14.4317H41.4676ZM45.5476 15.1717C46.7576 15.1717 47.7076 15.4417 48.3976 15.9717C49.0876 16.5117 49.4276 17.2417 49.4276 18.1717C49.4276 19.1017 49.0876 19.8317 48.3976 20.3717C47.7076 20.9117 46.7576 21.1717 45.5476 21.1717C44.3376 21.1717 43.3776 20.9017 42.6976 20.3717C42.0076 19.8317 41.6676 19.1017 41.6676 18.1717C41.6676 17.2417 42.0176 16.5117 42.6976 15.9717C43.3876 15.4417 44.3376 15.1717 45.5476 15.1717ZM44.5776 26.9817C44.0176 26.9817 43.6276 26.8717 43.4076 26.6617C43.1876 26.4517 43.0776 26.0717 43.0776 25.5117V22.8417C43.0776 22.5117 43.1876 22.2717 43.4176 22.1217C43.6476 21.9717 43.9176 21.8917 44.2176 21.8917C44.5176 21.8917 44.7776 21.9717 45.0076 22.1217C45.2376 22.2717 45.3476 22.5217 45.3476 22.8417V24.6417C45.3476 24.9117 45.4776 25.0517 45.7576 25.0517H53.1176C53.3876 25.0517 53.5876 25.1517 53.7176 25.3417C53.8476 25.5317 53.9076 25.7617 53.9076 26.0317C53.9076 26.3017 53.8376 26.5117 53.7176 26.7017C53.5876 26.8917 53.3876 26.9817 53.1176 26.9817H44.5676H44.5776ZM45.5476 19.4417C46.1876 19.4417 46.6476 19.3217 46.9476 19.0817C47.2476 18.8417 47.3976 18.5417 47.3976 18.1717C47.3976 17.8017 47.2476 17.5017 46.9476 17.2617C46.6476 17.0217 46.1776 16.9017 45.5476 16.9017C44.9176 16.9017 44.4476 17.0217 44.1476 17.2617C43.8476 17.5017 43.6976 17.8117 43.6976 18.1717C43.6976 18.5317 43.8476 18.8417 44.1476 19.0817C44.4476 19.3217 44.9176 19.4417 45.5476 19.4417ZM53.5276 15.3417H55.2076C55.4776 15.3417 55.6776 15.4317 55.8076 15.6217C55.9376 15.8117 56.0076 16.0417 56.0076 16.3117C56.0076 16.5817 55.9376 16.8117 55.8076 17.0017C55.6776 17.1917 55.4776 17.2817 55.2076 17.2817H53.5276V21.9917C53.5276 22.3217 53.4176 22.5617 53.1776 22.7117C52.9476 22.8617 52.6976 22.9417 52.4076 22.9417C52.1076 22.9417 51.8476 22.8617 51.6176 22.7117C51.3876 22.5617 51.2776 22.3117 51.2776 21.9917V11.6817C51.2776 11.3517 51.3976 11.1117 51.6176 10.9617C51.8476 10.8117 52.1076 10.7317 52.4076 10.7317C52.7076 10.7317 52.9476 10.8117 53.1776 10.9617C53.4076 11.1117 53.5276 11.3517 53.5276 11.6817V15.3317V15.3417Z" fill="#8A8A8A"/>
<path d="M63.1876 22.4617V19.0717H57.6276C57.3576 19.0717 57.1576 18.9817 57.0276 18.7817C56.8976 18.5917 56.8276 18.3717 56.8276 18.1317C56.8276 17.8717 56.8976 17.6517 57.0276 17.4617C57.1576 17.2717 57.3576 17.1817 57.6276 17.1817H70.9776C71.2476 17.1817 71.4476 17.2817 71.5776 17.4617C71.7076 17.6517 71.7776 17.8717 71.7776 18.1317C71.7776 18.3817 71.7076 18.6017 71.5776 18.7817C71.4476 18.9717 71.2476 19.0717 70.9776 19.0717H65.4176V22.4617H63.1976H63.1876ZM59.3176 23.3317C59.0476 23.3317 58.8476 23.2417 58.7176 23.0517C58.5876 22.8617 58.5276 22.6417 58.5276 22.3817C58.5276 22.1317 58.5876 21.9117 58.7176 21.7317C58.8476 21.5417 59.0476 21.4517 59.3176 21.4517H68.3576C68.9176 21.4517 69.3076 21.5617 69.5276 21.7717C69.7476 21.9817 69.8576 22.3617 69.8576 22.9217V26.4317C69.8576 26.7617 69.7376 27.0017 69.5076 27.1517C69.2776 27.3017 69.0176 27.3817 68.7276 27.3817C68.4376 27.3817 68.1676 27.3017 67.9376 27.1517C67.7076 27.0017 67.5976 26.7617 67.5976 26.4317V23.7417C67.5976 23.4717 67.4676 23.3417 67.1876 23.3417H59.3076L59.3176 23.3317ZM59.3876 13.3317C59.1176 13.3317 58.9176 13.2317 58.7876 13.0517C58.6576 12.8717 58.5976 12.6317 58.5976 12.3617C58.5976 12.0917 58.6576 11.8617 58.7876 11.6717C58.9176 11.4817 59.1176 11.3917 59.3876 11.3917H68.1776C68.7376 11.3917 69.1376 11.5017 69.3476 11.7117C69.5676 11.9217 69.6776 12.3017 69.6776 12.8617V14.0617C69.6776 14.4617 69.6576 14.8717 69.6076 15.2917C69.5576 15.7117 69.4976 16.1117 69.4276 16.4917C69.3576 16.8717 69.2776 17.2317 69.1776 17.5517C69.0876 17.8717 68.9976 18.1417 68.9176 18.3517L66.9176 17.9217C67.2576 16.6617 67.4276 15.4217 67.4276 14.2017V13.7417C67.4276 13.4717 67.2876 13.3417 67.0176 13.3417H59.3676L59.3876 13.3317Z" fill="#8A8A8A"/>
<path d="M79.8777 22.8317V18.1917C79.8777 17.8817 79.9877 17.6617 80.2077 17.5117C80.4277 17.3617 80.6777 17.2917 80.9477 17.2917C81.2177 17.2917 81.4677 17.3617 81.6877 17.5117C81.9077 17.6617 82.0277 17.8817 82.0277 18.1917V22.8317H87.0377C87.3077 22.8317 87.5077 22.9217 87.6377 23.1117C87.7677 23.3017 87.8377 23.5217 87.8377 23.7617C87.8377 24.0017 87.7677 24.2417 87.6377 24.4317C87.5077 24.6217 87.3077 24.7117 87.0377 24.7117H73.6877C73.4177 24.7117 73.2177 24.6217 73.0877 24.4317C72.9577 24.2417 72.8877 24.0217 72.8877 23.7617C72.8877 23.5017 72.9477 23.2917 73.0877 23.1117C73.2177 22.9217 73.4177 22.8317 73.6877 22.8317H76.1277V18.1917C76.1277 17.8817 76.2377 17.6617 76.4577 17.5117C76.6877 17.3617 76.9277 17.2917 77.1977 17.2917C77.4677 17.2917 77.7177 17.3617 77.9377 17.5117C78.1577 17.6617 78.2677 17.8817 78.2677 18.1917V22.8317H79.8577H79.8777ZM75.3877 13.8117C75.1177 13.8117 74.9177 13.7217 74.7877 13.5317C74.6577 13.3417 74.5877 13.1117 74.5877 12.8417C74.5877 12.5717 74.6577 12.3417 74.7877 12.1517C74.9177 11.9617 75.1177 11.8717 75.3877 11.8717H84.5677C85.1277 11.8717 85.5277 11.9817 85.7477 12.1917C85.9577 12.4017 86.0677 12.7917 86.0677 13.3417V14.9317C86.0677 16.0217 86.0277 16.9817 85.9477 17.8117C85.8777 18.6517 85.7577 19.4417 85.5877 20.1817C85.5177 20.5017 85.3477 20.7217 85.0877 20.8317C84.8177 20.9517 84.5277 20.9817 84.2177 20.9217C83.9477 20.8617 83.7277 20.7417 83.5577 20.5717C83.3877 20.4017 83.3277 20.1517 83.3877 19.8317C83.5377 19.0917 83.6477 18.3217 83.7277 17.5217C83.7977 16.7217 83.8277 15.8417 83.8277 14.8917V14.2317C83.8277 13.9617 83.6877 13.8217 83.4177 13.8217H75.3877V13.8117Z" fill="#8A8A8A"/>
<path d="M103.128 18.3516C103.398 18.3516 103.598 18.4416 103.718 18.6216C103.838 18.8016 103.898 19.0316 103.898 19.2816C103.898 19.5316 103.838 19.7416 103.718 19.9216C103.598 20.1016 103.398 20.1916 103.128 20.1916H99.7177V22.6116H97.5677V20.1916H95.3076V22.6116H93.1577V20.1916H89.7477C89.4777 20.1916 89.2777 20.1016 89.1577 19.9216C89.0377 19.7416 88.9777 19.5216 88.9777 19.2816C88.9777 19.0416 89.0377 18.8016 89.1577 18.6216C89.2777 18.4416 89.4777 18.3516 89.7477 18.3516H103.128ZM99.7376 24.0716C99.7376 23.8016 99.6077 23.6616 99.3277 23.6616H91.4377C91.1677 23.6616 90.9677 23.5716 90.8477 23.3916C90.7177 23.2116 90.6577 22.9916 90.6577 22.7216C90.6577 22.4516 90.7177 22.2416 90.8477 22.0616C90.9677 21.8816 91.1677 21.7916 91.4377 21.7916H100.498C101.068 21.7916 101.458 21.9016 101.678 22.1116C101.898 22.3216 101.998 22.7016 101.998 23.2616V26.4616C101.998 26.7916 101.888 27.0316 101.658 27.1816C101.428 27.3316 101.168 27.4116 100.868 27.4116C100.568 27.4116 100.318 27.3316 100.078 27.1816C99.8477 27.0316 99.7376 26.7916 99.7376 26.4616V24.0816V24.0716ZM90.9077 14.2516C90.9077 13.7116 91.0377 13.2416 91.2877 12.8416C91.5377 12.4416 91.9077 12.1116 92.3777 11.8416C92.8577 11.5716 93.4376 11.3816 94.1176 11.2516C94.7976 11.1316 95.5676 11.0616 96.4276 11.0616C97.2876 11.0616 98.0576 11.1316 98.7376 11.2516C99.4276 11.3816 99.9977 11.5716 100.478 11.8416C100.958 12.1016 101.318 12.4416 101.578 12.8416C101.828 13.2416 101.958 13.7116 101.958 14.2516C101.958 14.7916 101.828 15.2816 101.578 15.6716C101.328 16.0716 100.958 16.3916 100.478 16.6616C99.9977 16.9216 99.4276 17.1216 98.7376 17.2416C98.0576 17.3616 97.2876 17.4316 96.4276 17.4316C95.5676 17.4316 94.7976 17.3616 94.1176 17.2416C93.4376 17.1116 92.8577 16.9216 92.3777 16.6616C91.8977 16.3916 91.5377 16.0716 91.2877 15.6716C91.0377 15.2816 90.9077 14.8016 90.9077 14.2516ZM99.7177 14.2516C99.7177 13.8216 99.4676 13.4916 98.9576 13.2516C98.4476 13.0116 97.6077 12.8916 96.4377 12.8916C95.2677 12.8916 94.4177 13.0116 93.9177 13.2516C93.4077 13.4916 93.1577 13.8216 93.1577 14.2516C93.1577 14.6816 93.4077 15.0116 93.9177 15.2516C94.4177 15.4916 95.2677 15.6116 96.4377 15.6116C97.6077 15.6116 98.4576 15.4916 98.9576 15.2516C99.4676 15.0116 99.7177 14.6816 99.7177 14.2516Z" fill="#8A8A8A"/>
<path d="M114.538 21.9017C113.968 21.9517 113.348 21.9917 112.658 22.0217C111.978 22.0617 111.258 22.0917 110.518 22.1217C109.768 22.1517 108.998 22.1717 108.188 22.1817C107.388 22.1817 106.578 22.2017 105.758 22.2017C105.488 22.2017 105.298 22.1117 105.168 21.9317C105.048 21.7517 104.978 21.5417 104.978 21.3017C104.978 21.0617 105.038 20.8617 105.168 20.6717C105.298 20.4917 105.488 20.4017 105.758 20.4017H107.448C108.008 20.4017 108.568 20.4017 109.138 20.3817V18.3717H111.328V20.3317C111.848 20.3117 112.358 20.2817 112.858 20.2517C113.368 20.2217 113.868 20.1817 114.378 20.1417C114.648 20.1217 114.848 20.1817 114.988 20.3317C115.118 20.4817 115.208 20.6817 115.228 20.9317C115.248 21.1717 115.208 21.3817 115.108 21.5717C114.998 21.7717 114.818 21.8817 114.548 21.9017M106.168 13.8617C105.908 13.8617 105.718 13.7717 105.608 13.6017C105.488 13.4217 105.428 13.2217 105.428 12.9817C105.428 12.7317 105.488 12.5217 105.608 12.3417C105.728 12.1617 105.918 12.0817 106.168 12.0817H109.098V11.3917C109.098 11.0817 109.208 10.8617 109.428 10.7017C109.658 10.5517 109.918 10.4717 110.228 10.4717C110.538 10.4717 110.788 10.5517 111.018 10.7017C111.248 10.8517 111.358 11.0817 111.358 11.3917V12.0817H114.118C114.378 12.0817 114.568 12.1717 114.678 12.3417C114.798 12.5117 114.858 12.7317 114.858 12.9817C114.858 13.2117 114.798 13.4217 114.678 13.6017C114.558 13.7717 114.368 13.8617 114.118 13.8617H106.168ZM110.228 14.4617C111.418 14.4617 112.348 14.6717 113.028 15.0817C113.708 15.5017 114.048 16.0917 114.048 16.8617C114.048 17.6317 113.708 18.2317 113.028 18.6417C112.348 19.0517 111.418 19.2617 110.228 19.2617C109.038 19.2617 108.108 19.0617 107.428 18.6417C106.758 18.2317 106.418 17.6317 106.418 16.8617C106.418 16.0917 106.758 15.4917 107.428 15.0817C108.108 14.6717 109.038 14.4617 110.228 14.4617ZM108.778 27.0217C108.208 27.0217 107.818 26.9217 107.608 26.7017C107.388 26.4917 107.278 26.1017 107.278 25.5517V23.7017C107.278 23.3717 107.398 23.1317 107.628 22.9817C107.858 22.8317 108.118 22.7517 108.398 22.7517C108.678 22.7517 108.928 22.8217 109.158 22.9817C109.388 23.1317 109.508 23.3717 109.508 23.7017V24.7917C109.508 25.0617 109.638 25.2017 109.908 25.2017H117.748C118.008 25.2017 118.198 25.2917 118.318 25.4717C118.438 25.6517 118.498 25.8717 118.498 26.1117C118.498 26.3517 118.438 26.5517 118.318 26.7417C118.198 26.9217 118.008 27.0117 117.748 27.0117H108.778V27.0217ZM110.228 17.6417C111.418 17.6417 112.008 17.3817 112.008 16.8617C112.008 16.3417 111.418 16.0817 110.228 16.0817C109.038 16.0817 108.448 16.3417 108.448 16.8617C108.448 17.3817 109.038 17.6417 110.228 17.6417ZM118.098 15.8817H119.528C119.818 15.8817 120.018 15.9717 120.148 16.1617C120.278 16.3517 120.348 16.5817 120.348 16.8517C120.348 17.1217 120.278 17.3517 120.148 17.5517C120.018 17.7417 119.818 17.8417 119.528 17.8417H118.098V22.3817C118.098 22.7017 117.988 22.9317 117.768 23.0917C117.538 23.2417 117.288 23.3217 116.988 23.3217C116.688 23.3217 116.428 23.2417 116.208 23.0917C115.988 22.9417 115.878 22.7017 115.878 22.3817V11.6817C115.878 11.3617 115.988 11.1317 116.208 10.9717C116.428 10.8217 116.688 10.7417 116.988 10.7417C117.288 10.7417 117.538 10.8217 117.768 10.9717C117.988 11.1217 118.098 11.3617 118.098 11.6817V15.8817Z" fill="#8A8A8A"/>
<path d="M122.638 13.5617C122.368 13.5617 122.168 13.4717 122.038 13.2817C121.908 13.0917 121.848 12.8717 121.848 12.6117C121.848 12.3517 121.908 12.1117 122.038 11.9217C122.168 11.7317 122.368 11.6417 122.638 11.6417H127.738C128.308 11.6417 128.688 11.7517 128.908 11.9617C129.128 12.1717 129.228 12.5517 129.228 13.1117V14.4517C129.228 15.1117 129.158 15.6717 129.018 16.1217C128.878 16.5817 128.588 17.0017 128.158 17.4017C127.718 17.8017 127.098 18.2217 126.298 18.6517C125.498 19.0917 124.438 19.6217 123.118 20.2417C122.838 20.3717 122.568 20.3717 122.328 20.2417C122.078 20.1117 121.898 19.9317 121.798 19.6917C121.738 19.5917 121.698 19.4717 121.688 19.3417C121.668 19.2117 121.678 19.0917 121.688 18.9617C121.708 18.8417 121.758 18.7217 121.838 18.6217C121.918 18.5217 122.028 18.4317 122.188 18.3617C123.368 17.8217 124.278 17.3717 124.928 17.0217C125.568 16.6717 126.048 16.3717 126.358 16.1017C126.668 15.8417 126.848 15.5817 126.908 15.3217C126.968 15.0717 126.998 14.7517 126.998 14.3817V13.9717C126.998 13.7017 126.858 13.5617 126.588 13.5617H122.628H122.638ZM124.128 24.0017C124.128 22.8617 124.598 22.0017 125.548 21.4317C126.488 20.8617 127.798 20.5717 129.458 20.5717C131.118 20.5717 132.428 20.8517 133.368 21.4317C134.318 22.0017 134.788 22.8617 134.788 24.0017C134.788 25.1417 134.318 26.0117 133.368 26.5817C132.418 27.1417 131.118 27.4317 129.458 27.4317C127.798 27.4317 126.498 27.1517 125.548 26.5817C124.598 26.0117 124.128 25.1617 124.128 24.0017ZM132.548 24.0017C132.548 23.5217 132.308 23.1317 131.838 22.8317C131.358 22.5317 130.568 22.3817 129.458 22.3817C128.348 22.3817 127.548 22.5317 127.078 22.8317C126.608 23.1317 126.368 23.5217 126.368 24.0017C126.368 24.4817 126.608 24.8817 127.078 25.1817C127.548 25.4817 128.338 25.6317 129.458 25.6317C130.578 25.6317 131.358 25.4817 131.838 25.1817C132.318 24.8817 132.548 24.4917 132.548 24.0017ZM134.738 19.5117C134.738 19.8417 134.618 20.0817 134.388 20.2317C134.158 20.3817 133.908 20.4617 133.618 20.4617C133.328 20.4617 133.078 20.3817 132.848 20.2317C132.618 20.0817 132.508 19.8317 132.508 19.5117V18.3317H130.528C130.258 18.3317 130.068 18.2417 129.938 18.0517C129.818 17.8617 129.748 17.6317 129.748 17.3617C129.748 17.0917 129.808 16.8817 129.938 16.6917C130.068 16.5017 130.258 16.4117 130.528 16.4117H132.508V15.0117H130.668C130.398 15.0117 130.198 14.9217 130.078 14.7317C129.958 14.5417 129.898 14.3117 129.898 14.0417C129.898 13.7717 129.958 13.5617 130.078 13.3717C130.208 13.1817 130.398 13.0917 130.668 13.0917H132.508V11.7017C132.508 11.3717 132.628 11.1317 132.848 10.9817C133.078 10.8317 133.338 10.7517 133.618 10.7517C133.898 10.7517 134.158 10.8317 134.388 10.9817C134.618 11.1317 134.738 11.3717 134.738 11.7017V19.5217V19.5117Z" fill="#8A8A8A"/>
<path d="M137.968 24.7217C137.698 24.7217 137.498 24.6217 137.368 24.4417C137.238 24.2517 137.178 24.0317 137.178 23.7717C137.178 23.5117 137.238 23.2917 137.368 23.1017C137.498 22.9117 137.698 22.8217 137.968 22.8217H143.518V18.9317H145.778V22.8217H151.328C151.598 22.8217 151.798 22.9117 151.928 23.1017C152.058 23.2917 152.118 23.5117 152.118 23.7717C152.118 24.0317 152.058 24.2517 151.928 24.4417C151.798 24.6317 151.598 24.7217 151.328 24.7217H137.978H137.968ZM140.578 20.0117C140.018 20.0117 139.628 19.9117 139.408 19.6917C139.188 19.4817 139.088 19.1017 139.088 18.5417V12.4317C139.088 12.1117 139.208 11.8717 139.438 11.7217C139.678 11.5617 139.938 11.4817 140.218 11.4817C140.498 11.4817 140.758 11.5617 140.998 11.7217C141.238 11.8817 141.348 12.1217 141.348 12.4317V14.1417H147.948V12.4317C147.948 12.1117 148.068 11.8717 148.298 11.7217C148.538 11.5617 148.798 11.4817 149.078 11.4817C149.358 11.4817 149.618 11.5617 149.858 11.7217C150.088 11.8817 150.208 12.1217 150.208 12.4317V18.5417C150.208 19.0917 150.098 19.4817 149.878 19.6917C149.658 19.9017 149.268 20.0117 148.708 20.0117H140.578ZM147.538 18.1217C147.808 18.1217 147.938 17.9917 147.938 17.7217V16.0417H141.338V17.7217C141.338 17.9917 141.468 18.1217 141.738 18.1217H147.538Z" fill="#8A8A8A"/>
<path d="M161.838 20.2217V22.8217H167.378C167.648 22.8217 167.848 22.9117 167.978 23.1017C168.108 23.2917 168.168 23.5117 168.168 23.7717C168.168 24.0317 168.108 24.2517 167.978 24.4417C167.848 24.6317 167.648 24.7217 167.378 24.7217H154.028C153.758 24.7217 153.558 24.6217 153.428 24.4417C153.298 24.2517 153.228 24.0317 153.228 23.7717C153.228 23.5117 153.298 23.2917 153.428 23.1017C153.558 22.9117 153.758 22.8217 154.028 22.8217H159.568V20.2217H161.828H161.838ZM155.218 14.3717C154.948 14.3717 154.748 14.2817 154.618 14.0917C154.488 13.9017 154.428 13.6817 154.428 13.4217C154.428 13.1617 154.498 12.9417 154.618 12.7517C154.748 12.5617 154.948 12.4717 155.218 12.4717H159.558V11.4617C159.558 11.1317 159.678 10.8917 159.908 10.7317C160.138 10.5717 160.408 10.4917 160.708 10.4917C161.008 10.4917 161.288 10.5717 161.508 10.7317C161.738 10.8917 161.858 11.1317 161.858 11.4617V12.4717H166.198C166.468 12.4717 166.668 12.5717 166.798 12.7517C166.928 12.9417 166.988 13.1617 166.988 13.4217C166.988 13.6817 166.918 13.9017 166.798 14.0917C166.668 14.2817 166.468 14.3717 166.198 14.3717H155.218ZM155.748 18.2417C155.748 17.2317 156.188 16.4617 157.068 15.9517C157.958 15.4417 159.168 15.1817 160.708 15.1817C161.478 15.1817 162.168 15.2517 162.778 15.3817C163.388 15.5117 163.908 15.7017 164.338 15.9517C164.768 16.2017 165.098 16.5217 165.328 16.9017C165.558 17.2817 165.668 17.7317 165.668 18.2317C165.668 18.7317 165.548 19.1817 165.328 19.5617C165.098 19.9417 164.768 20.2617 164.338 20.5117C163.908 20.7617 163.388 20.9517 162.778 21.0817C162.168 21.2117 161.478 21.2717 160.708 21.2717C159.168 21.2717 157.958 21.0217 157.068 20.5017C156.188 19.9917 155.748 19.2317 155.748 18.2117M163.498 18.2417C163.498 17.8417 163.288 17.5217 162.868 17.2917C162.448 17.0517 161.728 16.9417 160.708 16.9417C159.688 16.9417 158.968 17.0617 158.548 17.2917C158.138 17.5217 157.928 17.8417 157.928 18.2417C157.928 18.6417 158.138 18.9617 158.548 19.2017C158.968 19.4317 159.688 19.5517 160.708 19.5517C161.728 19.5517 162.458 19.4317 162.868 19.2017C163.288 18.9617 163.498 18.6517 163.498 18.2417Z" fill="#8A8A8A"/>
<path d="M170.278 19.8317C170.008 19.8317 169.808 19.7417 169.688 19.5617C169.568 19.3817 169.508 19.1617 169.508 18.9017C169.508 18.6417 169.568 18.4217 169.688 18.2417C169.808 18.0617 170.008 17.9717 170.278 17.9717C171.698 17.9717 173.198 17.9517 174.768 17.9017C176.328 17.8517 177.858 17.7417 179.358 17.5617C179.628 17.5317 179.838 17.5917 179.968 17.7617C180.108 17.9317 180.198 18.1417 180.218 18.4017C180.238 18.6517 180.198 18.8717 180.098 19.0617C179.998 19.2617 179.798 19.3717 179.538 19.4117C179.018 19.4817 178.448 19.5417 177.828 19.6017C177.208 19.6617 176.548 19.7017 175.848 19.7317V21.4417C175.848 21.7517 175.738 21.9717 175.518 22.1017C175.298 22.2317 175.038 22.3017 174.718 22.3017C174.398 22.3017 174.148 22.2317 173.938 22.1017C173.718 21.9717 173.608 21.7517 173.608 21.4417V19.8217C173.048 19.8417 172.478 19.8617 171.928 19.8617H170.288L170.278 19.8317ZM174.868 17.1117C173.428 17.1117 172.358 16.8317 171.638 16.2817C170.918 15.7317 170.558 14.9917 170.558 14.0617C170.558 13.1317 170.918 12.3917 171.638 11.8317C172.348 11.2817 173.428 11.0017 174.868 11.0017C176.308 11.0017 177.388 11.2817 178.098 11.8317C178.808 12.3817 179.178 13.1317 179.178 14.0617C179.178 14.9917 178.818 15.7317 178.098 16.2817C177.378 16.8317 176.298 17.1117 174.868 17.1117ZM182.748 25.1117C183.018 25.1117 183.218 25.2017 183.348 25.3917C183.478 25.5817 183.538 25.8017 183.538 26.0617C183.538 26.3217 183.478 26.5417 183.348 26.7317C183.218 26.9217 183.018 27.0117 182.748 27.0117H173.518C172.948 27.0117 172.558 26.9117 172.338 26.6917C172.118 26.4817 172.008 26.0917 172.008 25.5417V23.4817C172.008 23.1517 172.118 22.9117 172.348 22.7617C172.578 22.6017 172.848 22.5317 173.158 22.5317C173.468 22.5317 173.708 22.6017 173.938 22.7617C174.168 22.9117 174.288 23.1517 174.288 23.4817V24.7017C174.288 24.9717 174.418 25.1117 174.698 25.1117H182.748ZM174.868 15.3517C175.628 15.3517 176.178 15.2317 176.528 15.0117C176.888 14.7817 177.058 14.4717 177.058 14.0717C177.058 13.6717 176.878 13.3517 176.528 13.1217C176.178 12.8917 175.628 12.7817 174.868 12.7817C174.108 12.7817 173.568 12.8917 173.208 13.1217C172.858 13.3517 172.678 13.6717 172.678 14.0717C172.678 14.4717 172.858 14.7817 173.208 15.0117C173.568 15.2417 174.118 15.3517 174.868 15.3517ZM180.908 21.9917H178.518C178.258 21.9917 178.068 21.9017 177.948 21.7317C177.828 21.5517 177.758 21.3417 177.758 21.0917C177.758 20.8417 177.818 20.6317 177.948 20.4517C178.068 20.2717 178.258 20.1817 178.518 20.1817H180.908V11.6917C180.908 11.3617 181.018 11.1217 181.248 10.9717C181.478 10.8217 181.738 10.7417 182.038 10.7417C182.338 10.7417 182.578 10.8217 182.808 10.9717C183.038 11.1217 183.148 11.3717 183.148 11.6917V22.3617C183.148 22.6917 183.038 22.9317 182.808 23.0817C182.578 23.2317 182.328 23.3117 182.038 23.3117C181.748 23.3117 181.478 23.2317 181.248 23.0817C181.018 22.9317 180.908 22.6917 180.908 22.3617V21.9917Z" fill="#8A8A8A"/>
<path d="M7.28762 23.4617C7.28762 23.5117 7.28761 23.5617 7.26761 23.6217C7.10761 28.1417 11.8776 31.8417 17.4076 31.9217C22.9376 32.0117 28.1576 28.4517 28.5576 23.9317C28.5576 23.8817 28.5576 23.8317 28.5576 23.7717C28.6576 22.1517 30.1276 20.8517 32.1276 20.8817C34.1276 20.9117 35.4176 22.2417 35.3376 23.8517C35.3376 23.8517 35.3376 23.8617 35.3376 23.8717V23.9017C34.9076 30.3017 29.4076 35.6417 22.1976 37.3117C19.8376 37.8017 16.1676 38.3717 11.9576 37.1517C4.96761 35.2517 0.137616 29.7617 0.497616 23.3617V23.3417V23.3217C0.617616 21.7117 2.06762 20.4317 4.06762 20.4717C6.06762 20.5017 7.36761 21.8517 7.26761 23.4717" fill="#8A8A8A"/>
<path d="M8.34766 13.2317C7.96766 15.5117 5.80766 17.0417 3.53766 16.6617C1.26766 16.2817 -0.272335 14.1317 0.107665 11.8517C0.487665 9.57167 2.63766 8.04167 4.91766 8.42167C7.18766 8.80167 8.72766 10.9517 8.34766 13.2317Z" fill="#8A8A8A"/>
<path d="M23.9176 3.3617C23.6576 4.9317 22.1676 5.9917 20.5976 5.7317C19.0276 5.4717 17.9576 3.9817 18.2276 2.4117C18.4876 0.841705 19.9776 -0.228295 21.5476 0.0417046C23.1176 0.301705 24.1776 1.7917 23.9176 3.3617Z" fill="#8A8A8A"/>
<path d="M19.3276 9.36169L28.7376 3.57169C28.7376 3.57169 33.7676 0.431692 31.0476 5.61169C29.3076 8.78169 24.4976 13.0417 24.9376 14.2417C25.3776 15.4417 28.7676 22.6017 27.2976 22.2817C25.8176 21.9517 21.0676 18.6617 21.0676 18.6617C21.0676 18.6617 19.2276 16.6617 19.2176 18.6717C19.2076 20.6817 18.5776 23.9517 17.8676 24.0817C17.1676 24.2017 14.7676 21.2317 13.3376 11.9817C11.9176 2.79169 13.1376 -1.72831 15.0576 1.73169C16.9776 5.19169 19.3276 9.36169 19.3276 9.36169Z" fill="#8A8A8A"/>
</svg>
