<svg width="88" height="13" viewBox="0 0 88 13" fill="none" xmlns="http://www.w3.org/2000/svg">
<path d="M0.328935 1.71014H3.42109V12.2726H2.12912V2.82585H0.322815V1.71014H0.328935Z" fill="#3E3A39"/>
<path d="M6.72142 12.2665H5.36823L9.80132 2.81972H4.44977V1.70401H11.4362V2.21895L6.7153 12.2603L6.72142 12.2665Z" fill="#3E3A39"/>
<path d="M16.5857 12.1439V2.43964H12.471V1.32393H17.8715V12.1439H16.5796H16.5857ZM19.2186 12.2848V1.0542H20.5106V6.16684L21.9679 5.63964V1.06033H23.2598V12.2848H21.9679V6.76761L20.5106 7.29481V12.2848H19.2186Z" fill="#3E3A39"/>
<path d="M31.624 6.06876C31.624 6.44883 31.5995 6.81665 31.575 7.14155C31.5382 7.47872 31.4831 7.80975 31.4096 8.10401L35.0223 10.973L34.3671 12.0029L30.9627 9.31167C30.6504 9.91244 30.2401 10.4274 29.7258 10.8871C29.1992 11.3347 28.5257 11.7454 27.6991 12.0948L27.1051 11.0098C27.6991 10.74 28.2012 10.4642 28.6114 10.1699C29.0094 9.90018 29.3462 9.55688 29.6033 9.1768C29.8605 8.80899 30.0442 8.37374 30.1605 7.8588C30.2646 7.36837 30.3259 6.75535 30.3259 6.05037V1.15841H31.6301V6.06263L31.624 6.06876ZM37.3858 12.2848H36.0938V1.0542H37.3858V12.2787V12.2848Z" fill="#3E3A39"/>
<path d="M40.882 7.60746H39.2472V5.87872H40.882V7.60746Z" fill="#3E3A39"/>
<path d="M52.3628 7.67488V8.79058H48.3154V11.1691H52.8649V12.2848H42.4863V11.1691H47.0235V8.79058H43.1169V1.33005H52.2342V2.44576H44.4089V7.67488H52.3628Z" fill="#3E3A39"/>
<path d="M54.0895 11.1691H56.551V5.60897H57.8429V11.1691H59.6492V5.60897H60.9412V11.1691H64.4742V12.2848H54.0956V11.1691H54.0895ZM62.5516 9.19518V2.43962H54.7263V1.32391H63.8435V9.19518H62.5516Z" fill="#3E3A39"/>
<path d="M65.6988 6.57142H76.0774V7.68713H73.7812V8.94997H75.4467V12.5484H74.1547V10.0595H66.3295V8.94384H67.9827V7.681H65.6988V6.56529V6.57142ZM70.8789 5.4741C69.3604 5.4741 68.2215 5.28407 67.4745 4.90399C66.703 4.52391 66.3295 3.96606 66.3295 3.2059C66.3295 2.44575 66.703 1.8879 67.4745 1.49556C68.2215 1.11548 69.3543 0.925446 70.8789 0.925446C72.4035 0.925446 73.5241 1.11548 74.2956 1.49556C75.0548 1.8879 75.4406 2.45801 75.4406 3.2059C75.4406 3.9538 75.0548 4.52391 74.2956 4.90399C73.5241 5.28407 72.3852 5.4741 70.8789 5.4741ZM70.8789 4.3584C71.9749 4.3584 72.8015 4.26031 73.3404 4.04575C73.8792 3.85571 74.1547 3.56759 74.1547 3.2059C74.1547 2.84422 73.8853 2.56836 73.3404 2.34767C72.8015 2.14537 71.9749 2.03502 70.8789 2.03502C69.7829 2.03502 68.9563 2.14537 68.4297 2.34767C67.8908 2.56223 67.6153 2.85035 67.6153 3.2059C67.6153 3.56146 67.8847 3.85571 68.4297 4.04575C68.9563 4.26031 69.7706 4.3584 70.8789 4.3584ZM69.2685 8.94997H72.4893V7.68713H69.2685V8.94997Z" fill="#3E3A39"/>
<path d="M81.4045 1.59979H84.3313V2.7155H81.4045V3.16301C81.4045 3.39596 81.3922 3.61052 81.3677 3.80055C81.331 4.00285 81.2759 4.19289 81.2269 4.38293L84.4782 6.40592L83.7925 7.34385L80.7248 5.41281C80.388 5.87258 79.9656 6.27105 79.4512 6.58369C78.9124 6.9086 78.3062 7.16607 77.6204 7.3745L77.051 6.3814C77.4918 6.27105 77.8898 6.12393 78.2633 5.93389C78.6246 5.76837 78.9491 5.55381 79.2308 5.29634C79.5002 5.05113 79.7206 4.73848 79.8737 4.38293C80.0268 4.04576 80.1064 3.63504 80.1064 3.14461V2.70937H77.3081V1.59366H80.1064V0.398254H81.4106V1.59366L81.4045 1.59979ZM82.6658 12.8243C81.9188 12.8243 81.233 12.7691 80.6391 12.6772C80.0207 12.5668 79.5063 12.4197 79.0899 12.2297C78.6674 12.0274 78.3429 11.7822 78.1225 11.4818C77.8898 11.1691 77.7735 10.8136 77.7735 10.409C77.7735 10.0044 77.8898 9.64883 78.1225 9.33619C78.3429 9.0358 78.6613 8.79059 79.0899 8.58829C79.5002 8.39825 80.0207 8.26339 80.6391 8.15304C81.233 8.05496 81.9127 8.00592 82.6658 8.00592C83.419 8.00592 84.0864 8.06109 84.7048 8.15304C85.2987 8.26339 85.8131 8.39825 86.2417 8.58829C86.6519 8.79059 86.9887 9.0358 87.2214 9.33619C87.4418 9.64883 87.5581 10.0044 87.5581 10.409C87.5581 10.8136 87.4418 11.1691 87.2214 11.4818C86.9887 11.7822 86.6519 12.0274 86.2417 12.2297C85.8192 12.4197 85.2987 12.5668 84.7048 12.6772C84.0864 12.7753 83.4128 12.8243 82.6658 12.8243ZM82.6658 11.7086C83.2047 11.7086 83.7129 11.6841 84.1599 11.6289C84.6007 11.5737 84.9742 11.494 85.2926 11.3837C85.6049 11.2733 85.8315 11.1385 86.0151 10.9791C86.1682 10.8136 86.2601 10.6235 86.2601 10.409C86.2601 10.1944 86.1682 10.0044 86.0151 9.83887C85.8315 9.69174 85.6049 9.55075 85.2926 9.44653C84.9681 9.33619 84.5946 9.25649 84.1599 9.20132C83.7067 9.14615 83.2047 9.12163 82.6658 9.12163C82.127 9.12163 81.6188 9.14615 81.184 9.20132C80.7309 9.25649 80.3574 9.33619 80.0513 9.44653C79.7267 9.55688 79.4818 9.69174 79.3287 9.83887C79.1512 10.0044 79.0716 10.1944 79.0716 10.409C79.0716 10.6235 79.1512 10.8197 79.3287 10.9791C79.4818 11.1446 79.7267 11.2795 80.0513 11.3837C80.3635 11.494 80.7371 11.5737 81.184 11.6289C81.6249 11.6841 82.1147 11.7086 82.6658 11.7086ZM87.2949 1.05419V7.79749H86.0029V4.54845L84.0313 5.03887V3.92316L86.0029 3.445V1.05419H87.2949Z" fill="#3E3A39"/>
</svg>
