<svg width="89" height="23" viewBox="0 0 89 14" fill="none" xmlns="http://www.w3.org/2000/svg">
<path d="M0.873795 2.14648H3.96595V12.7089H2.67398V3.26219H0.867676V2.14648H0.873795Z" fill="#3E3A39"/>
<path d="M7.26628 12.7031H5.91309L10.3462 3.25633H4.99463V2.14062H11.981V2.65557L7.26016 12.6969L7.26628 12.7031Z" fill="#3E3A39"/>
<path d="M17.1303 12.5809V2.87665H13.0156V1.76094H18.4162V12.5809H17.1242H17.1303ZM19.7632 12.7219V1.49121H21.0552V6.60385L22.5125 6.07665V1.49734H23.8045V12.7219H22.5125V7.20462L21.0552 7.73182V12.7219H19.7632Z" fill="#3E3A39"/>
<path d="M32.1687 6.50577C32.1687 6.88585 32.1442 7.25366 32.1197 7.57857C32.083 7.91573 32.0279 8.24677 31.9544 8.54102L35.567 11.41L34.9119 12.4399L31.5074 9.74868C31.1952 10.3494 30.7849 10.8644 30.2706 11.3242C29.744 11.7717 29.0704 12.1824 28.2438 12.5318L27.6499 11.4468C28.2438 11.177 28.7459 10.9012 29.1562 10.6069C29.5542 10.3372 29.8909 9.99389 30.1481 9.61381C30.4053 9.246 30.589 8.81075 30.7053 8.29581C30.8094 7.80539 30.8706 7.19236 30.8706 6.48738V1.59543H32.1748V6.49964L32.1687 6.50577ZM37.9305 12.7219H36.6386V1.49121H37.9305V12.7157V12.7219Z" fill="#3E3A39"/>
<path d="M41.4269 8.04417H39.792V6.31543H41.4269V8.04417Z" fill="#3E3A39"/>
<path d="M52.9078 8.11143V9.22714H48.8604V11.6057H53.4098V12.7214H43.0312V11.6057H47.5684V9.22714H43.6619V1.7666H52.7792V2.88231H44.9539V8.11143H52.9078Z" fill="#3E3A39"/>
<path d="M54.6343 11.606H57.0958V6.0458H58.3877V11.606H60.194V6.0458H61.486V11.606H65.019V12.7217H54.6404V11.606H54.6343ZM63.0964 9.63201V2.87645H55.2711V1.76074H64.3883V9.63201H63.0964Z" fill="#3E3A39"/>
<path d="M66.2437 7.00828H76.6222V8.12399H74.3261V9.38682H75.9916V12.9853H74.6996V10.4964H66.8743V9.38069H68.5276V8.11786H66.2437V7.00215V7.00828ZM71.4238 5.91096C69.9052 5.91096 68.7664 5.72092 68.0193 5.34085C67.2478 4.96077 66.8743 4.40292 66.8743 3.64276C66.8743 2.88261 67.2478 2.32476 68.0193 1.93242C68.7664 1.55234 69.8991 1.3623 71.4238 1.3623C72.9484 1.3623 74.0689 1.55234 74.8404 1.93242C75.5997 2.32476 75.9854 2.89487 75.9854 3.64276C75.9854 4.39066 75.5997 4.96077 74.8404 5.34085C74.0689 5.72092 72.93 5.91096 71.4238 5.91096ZM71.4238 4.79525C72.5198 4.79525 73.3464 4.69717 73.8852 4.48261C74.4241 4.29257 74.6996 4.00445 74.6996 3.64276C74.6996 3.28108 74.4302 3.00522 73.8852 2.78453C73.3464 2.58223 72.5198 2.47188 71.4238 2.47188C70.3277 2.47188 69.5011 2.58223 68.9745 2.78453C68.4357 2.99909 68.1602 3.28721 68.1602 3.64276C68.1602 3.99832 68.4296 4.29257 68.9745 4.48261C69.5011 4.69717 70.3155 4.79525 71.4238 4.79525ZM69.8134 9.38682H73.0341V8.12399H69.8134V9.38682Z" fill="#3E3A39"/>
<path d="M81.9492 2.03649H84.876V3.1522H81.9492V3.59971C81.9492 3.83266 81.937 4.04722 81.9125 4.23726C81.8757 4.43956 81.8206 4.6296 81.7716 4.81964L85.023 6.84262L84.3372 7.78055L81.2695 5.84952C80.9328 6.30929 80.5103 6.70776 79.996 7.0204C79.4571 7.34531 78.8509 7.60278 78.1651 7.81121L77.5957 6.8181C78.0366 6.70776 78.4346 6.56063 78.8081 6.37059C79.1693 6.20508 79.4939 5.99052 79.7755 5.73305C80.0449 5.48783 80.2654 5.17519 80.4184 4.81964C80.5715 4.48247 80.6511 4.07174 80.6511 3.58132V3.14607H77.8529V2.03036H80.6511V0.834961H81.9553V2.03036L81.9492 2.03649ZM83.2106 13.261C82.4635 13.261 81.7778 13.2058 81.1838 13.1139C80.5654 13.0035 80.051 12.8564 79.6347 12.6664C79.2122 12.4641 78.8877 12.2189 78.6672 11.9185C78.4346 11.6058 78.3182 11.2503 78.3182 10.8457C78.3182 10.4411 78.4346 10.0855 78.6672 9.77289C78.8877 9.47251 79.2061 9.2273 79.6347 9.025C80.0449 8.83496 80.5654 8.70009 81.1838 8.58975C81.7778 8.49167 82.4574 8.44262 83.2106 8.44262C83.9637 8.44262 84.6311 8.4978 85.2495 8.58975C85.8435 8.70009 86.3578 8.83496 86.7864 9.025C87.1967 9.2273 87.5335 9.47251 87.7661 9.77289C87.9866 10.0855 88.1029 10.4411 88.1029 10.8457C88.1029 11.2503 87.9866 11.6058 87.7661 11.9185C87.5335 12.2189 87.1967 12.4641 86.7864 12.6664C86.3639 12.8564 85.8435 13.0035 85.2495 13.1139C84.6311 13.212 83.9576 13.261 83.2106 13.261ZM83.2106 12.1453C83.7494 12.1453 84.2576 12.1208 84.7046 12.0656C85.1455 12.0104 85.5189 11.9307 85.8373 11.8204C86.1496 11.7101 86.3762 11.5752 86.5599 11.4158C86.713 11.2503 86.8048 11.0602 86.8048 10.8457C86.8048 10.6311 86.713 10.4411 86.5599 10.2756C86.3762 10.1284 86.1496 9.98745 85.8373 9.88324C85.5128 9.77289 85.1393 9.6932 84.7046 9.63803C84.2515 9.58285 83.7494 9.55833 83.2106 9.55833C82.6717 9.55833 82.1635 9.58285 81.7288 9.63803C81.2757 9.6932 80.9022 9.77289 80.596 9.88324C80.2715 9.99358 80.0266 10.1284 79.8735 10.2756C79.6959 10.4411 79.6163 10.6311 79.6163 10.8457C79.6163 11.0602 79.6959 11.2564 79.8735 11.4158C80.0266 11.5813 80.2715 11.7162 80.596 11.8204C80.9083 11.9307 81.2818 12.0104 81.7288 12.0656C82.1696 12.1208 82.6595 12.1453 83.2106 12.1453ZM87.8396 1.4909V8.23419H86.5476V4.98515L84.576 5.47557V4.35986L86.5476 3.8817V1.4909H87.8396Z" fill="#3E3A39"/>
</svg>
