<svg width="106" height="38" viewBox="0 0 106 38" fill="none" xmlns="http://www.w3.org/2000/svg">
<path d="M28.63 17.7C25.41 15.51 21.28 16.4 19.12 19.7C17.31 22.45 14.58 22.79 13.52 22.79C10.08 22.79 7.72 20.37 7.02 17.86C7.02 17.86 7.01 17.82 7 17.79C7 17.76 6.99 17.73 6.98 17.7C6.71 16.65 6.64 16.15 6.64 15.04C6.64 9.04 12.79 2.36 21.65 2.36C30.51 2.36 35.92 9.27 37.26 13.11C37.24 13.04 37.22 12.98 37.19 12.91C34.61 5.4 27.49 0 19.11 0C8.56 0.01 0 8.56 0 19.12C0 28.55 6.8 36.63 16.24 36.63C23.77 36.63 28.83 32.41 31.15 26.59C32.42 23.41 31.52 19.67 28.63 17.7Z" fill="#8A8A8A"/>
<path d="M37.38 13.49C36.27 9.74 31.03 2.37 21.66 2.37C12.8 2.37 6.65002 9.05 6.65002 15.05C6.65002 16.16 6.72002 16.66 6.99002 17.71C6.88002 17.25 6.81002 16.79 6.81002 16.35C6.81002 10.1 13.07 5.78 19.49 5.78C28.19 5.78 35.25 12.84 35.25 21.54C35.25 28.36 31.32 34.27 25.62 37.1C32.97 34.44 38.22 27.4 38.22 19.13C38.22 17.17 37.96 15.45 37.38 13.51V13.49Z" fill="#8A8A8A"/>
<path d="M52.89 24.7999V19.3299H54.96V24.7999H57.91V19.3299H60V24.7999H65.24V26.7199H49.04V24.7999H52.89ZM61.74 21.6999V13.2399H50.34V11.2799H63.94V21.6899H61.74V21.6999Z" fill="#8A8A8A"/>
<path d="M83.7401 22.6199V28.0599H81.5501V24.4999H69.7301V22.6199H72.5401L72.5601 20.5599H68.8501V18.6599H85.0601V20.5599H81.3201V22.6199H83.7501H83.7401ZM81.2901 14.0099C81.2901 14.5599 81.1701 15.0799 80.9301 15.5699C80.6901 16.0599 80.3801 16.4899 80.0001 16.8699C79.6101 17.2299 79.1401 17.5099 78.6201 17.7299C78.0901 17.9499 77.5301 18.0599 76.9401 18.0599C76.3501 18.0599 75.7801 17.9499 75.2501 17.7299C74.7201 17.5099 74.2501 17.2299 73.8601 16.8699C73.4801 16.4899 73.1701 16.0499 72.9301 15.5699C72.6901 15.0799 72.5701 14.5599 72.5701 14.0099C72.5701 13.4599 72.6901 12.9399 72.9301 12.4499C73.1701 11.9599 73.4801 11.5299 73.8601 11.1499C74.2501 10.7799 74.7201 10.4899 75.2501 10.2699C75.7801 10.0499 76.3501 9.93994 76.9401 9.93994C77.5301 9.93994 78.0901 10.0499 78.6201 10.2699C79.1501 10.4899 79.6101 10.7799 80.0001 11.1499C80.3801 11.5299 80.6901 11.9699 80.9301 12.4499C81.1701 12.9399 81.2901 13.4599 81.2901 14.0099ZM74.5501 22.6199H79.2901V20.5599H74.5701L74.5501 22.6199ZM79.1401 14.0099C79.1401 13.4199 78.9301 12.9099 78.5001 12.4999C78.0801 12.0899 77.5601 11.8799 76.9501 11.8799C76.3401 11.8799 75.8201 12.0899 75.3901 12.4999C74.9601 12.9199 74.7401 13.4199 74.7401 14.0099C74.7401 14.5999 74.9601 15.1099 75.3901 15.5299C75.8201 15.9499 76.3401 16.1599 76.9501 16.1599C77.5601 16.1599 78.0801 15.9499 78.5001 15.5299C78.9301 15.1099 79.1401 14.5999 79.1401 14.0099Z" fill="#8A8A8A"/>
<path d="M88.8401 21.5299H105.05V23.4699H98.0301V28.0199H95.8401V23.4699H88.8401V21.5299ZM92.3001 12.9099H101.57V10.6799H103.74V19.1599H90.1401V10.6799H92.3001V12.9099ZM101.57 14.8099H92.3001V17.2399H101.57V14.8099Z" fill="#8A8A8A"/>
</svg>
