<svg width="95" height="15" viewBox="0 0 95 15" fill="none" xmlns="http://www.w3.org/2000/svg">
<path d="M19.3385 3.26131C20.9054 6.68161 18.0423 11.3482 12.9414 13.6882C7.8405 16.0283 2.43487 15.1528 0.865714 11.737C-0.701168 8.319 2.16425 3.65018 7.26287 1.31237C12.3638 -1.02772 17.7717 -0.154447 19.3385 3.26358" fill="#8A8A8A"/>
<path d="M7.52675 1.56258C4.91831 2.77697 2.93071 4.65086 1.9028 6.62936H19.1089C19.3727 5.51276 19.3091 4.41208 18.8633 3.42283C17.392 0.166262 12.3161 -0.666072 7.52675 1.56258Z" fill="white"/>
<path d="M11.4017 0.989337C10.7195 0.989337 10.0987 1.24859 9.63019 1.67158C9.98268 1.46691 10.3943 1.34865 10.8378 1.34865C12.134 1.34865 13.1847 2.35837 13.1847 3.6046C13.1847 4.85082 12.134 5.86281 10.8378 5.86281C10.342 5.86281 9.88035 5.71272 9.50284 5.46029C9.98268 5.95832 10.6558 6.26762 11.4017 6.26762C12.8595 6.26762 14.0397 5.08506 14.0397 3.62733C14.0397 2.16961 12.8595 0.987061 11.4017 0.987061" fill="#8A8A8A"/>
<path d="M8.49331 2.52217H11.336C11.336 2.52217 11.7863 2.52217 11.6976 3.06342C11.6066 3.60466 11.3815 4.28235 11.3815 4.28235H12.0592L11.9705 4.73264H7.31985L7.41082 4.32784H8.67297L8.85263 3.37953H9.25969L9.08004 4.32784H9.62129L9.84642 3.37953H10.299L10.0738 4.37105H10.9289L11.2928 2.92698H8.40462L8.49558 2.5199L8.49331 2.52217Z" fill="#8A8A8A"/>
<path d="M13.3849 12.1895V9.96995C13.3849 9.41052 12.9278 8.95114 12.3661 8.95114H11.5497C11.2541 8.95114 10.988 9.0785 10.8015 9.27862V8.88519C10.8015 8.32802 10.3421 7.86865 9.7827 7.86865H8.96629C8.40457 7.86865 7.9452 8.32575 7.9452 8.88519V9.15809C7.77464 9.03073 7.56314 8.95114 7.33345 8.95114H6.51931C5.9576 8.95114 5.49822 9.40824 5.49822 9.96995V12.2373C5.48913 12.3533 5.48003 12.6898 5.75975 12.7057C5.97807 12.7171 6.04174 12.542 6.05539 12.3965H6.05766V12.3692C6.06221 12.3191 6.06221 12.2759 6.05766 12.2441V10.1041C6.05766 9.73118 6.3624 9.42643 6.73536 9.42643H7.2061C7.57679 9.42643 7.88152 9.7289 7.88152 10.1041V12.2737C7.87242 12.4101 7.88607 12.6944 8.15897 12.708C8.46825 12.7217 8.48644 12.4033 8.47734 12.2646V9.05121C8.47734 8.68052 8.78435 8.37578 9.15504 8.37578H9.62578C9.99647 8.37578 10.3035 8.68052 10.3035 9.05121V12.2737C10.2944 12.4101 10.3058 12.6944 10.5946 12.708C10.9152 12.7217 10.938 12.4147 10.9311 12.2737V10.1041C10.9311 9.73118 11.2336 9.42643 11.6088 9.42643H12.0796C12.4525 9.42643 12.7573 9.7289 12.7573 10.1041V12.2623C12.7459 12.3942 12.7527 12.6921 13.0438 12.708C13.3599 12.7217 13.3827 12.4147 13.3781 12.2737C13.3781 12.2464 13.3827 12.2214 13.3827 12.1941" fill="white"/>
<path d="M23.4018 8.17343L23.2017 7.76409C23.1631 7.67085 23.163 7.5867 23.279 7.53212C24.548 6.9977 25.444 6.12443 25.7306 5.18976C25.7851 5.0283 25.776 4.96461 25.6214 4.96461H23.5178C23.4564 4.96461 23.4178 4.91004 23.4178 4.84864V4.33922C23.4178 4.26872 23.4564 4.23007 23.5269 4.23007H26.1467C26.6038 4.23007 26.7585 4.36198 26.7585 4.694C26.7585 4.77814 26.7039 5.03512 26.688 5.08742C26.2945 6.50194 25.2803 7.56168 23.6497 8.23482C23.5269 8.2894 23.4405 8.26667 23.4018 8.17343ZM26.5697 11.2048C25.1552 11.2048 24.2819 10.5863 24.2819 9.69711C24.2819 8.80792 25.1552 8.21209 26.5697 8.21209C27.9001 8.21209 28.8825 8.82384 28.8825 9.69711C28.8825 10.5704 27.9001 11.2048 26.5697 11.2048ZM26.5697 8.90797C25.7419 8.90797 25.2007 9.21043 25.2007 9.72666C25.2007 10.2133 25.7647 10.4999 26.5697 10.4999C27.327 10.4999 27.9683 10.2133 27.9683 9.72666C27.9683 9.23999 27.327 8.90797 26.5697 8.90797ZM28.812 6.48829V7.98012C28.812 8.05062 28.7734 8.08018 28.7029 8.08018H28.0229C27.9683 8.08018 27.9137 8.0347 27.9137 7.97103V3.96627C27.9137 3.91169 27.9683 3.86621 28.0229 3.86621H28.7029C28.7734 3.86621 28.812 3.89805 28.812 3.96627V5.74465H29.8558C29.9104 5.74465 29.9718 5.79014 29.9718 5.84471V6.38595C29.9718 6.44053 29.9104 6.48601 29.8558 6.48601H28.812V6.48829Z" fill="#8A8A8A"/>
<path d="M33.0581 7.85712V8.97145C33.0581 9.03286 33.0035 9.08742 32.9421 9.08742H32.3008C32.2394 9.08742 32.1848 9.03286 32.1848 8.97145V7.92079C31.5731 7.94353 30.8476 7.96628 30.4292 7.94354C30.3678 7.94354 30.32 7.88214 30.32 7.82074V7.34089C30.32 7.27948 30.3655 7.2249 30.4292 7.2249C31.8505 7.2249 33.9154 7.1635 35.0593 6.99977C35.1139 6.99294 35.1821 7.02251 35.1912 7.08391L35.2458 7.52509C35.2526 7.60923 35.2003 7.6479 35.1457 7.67292C34.5726 7.77298 33.6926 7.83438 33.0581 7.8594V7.85712ZM34.4498 5.37604C34.4498 6.18109 33.7153 6.80647 32.6646 6.80647C31.614 6.80647 30.8931 6.18109 30.8931 5.37604C30.8931 4.571 31.6117 3.97744 32.6646 3.97744C33.7176 3.97744 34.4498 4.61193 34.4498 5.37604ZM32.0756 11.0728C31.6049 11.0728 31.4798 10.9249 31.4798 10.5247V9.41945C31.4798 9.36487 31.5344 9.3103 31.589 9.3103H32.253C32.3144 9.3103 32.369 9.36487 32.369 9.41945V10.2086C32.369 10.3086 32.4008 10.3314 32.5168 10.3314H36.4602C36.5148 10.3314 36.5693 10.3769 36.5693 10.4314V10.9795C36.5693 11.0409 36.5148 11.0728 36.4602 11.0728H32.0756ZM31.7436 5.39195C31.7436 5.81721 32.1621 6.13332 32.6646 6.13332C33.1672 6.13332 33.5925 5.81721 33.5925 5.39195C33.5925 4.96668 33.1741 4.65741 32.6646 4.65741C32.1552 4.65741 31.7436 4.9826 31.7436 5.39195ZM35.6097 9.64231C35.5392 9.64231 35.5096 9.60366 35.5096 9.53316V8.83044H34.1883C34.1337 8.83044 34.0792 8.78498 34.0792 8.7304V8.24373C34.0792 8.18915 34.1337 8.15048 34.1883 8.15048H35.5096V3.96835C35.5096 3.89785 35.5414 3.86829 35.6097 3.86829H36.2987C36.3692 3.86829 36.3988 3.90012 36.3988 3.96835V9.53544C36.3988 9.60593 36.3669 9.64459 36.2987 9.64459H35.6097V9.64231Z" fill="#8A8A8A"/>
<path d="M37.5493 8.30519C37.4788 8.30519 37.4402 8.26654 37.4402 8.1824V7.68663C37.4402 7.61614 37.4788 7.57748 37.5493 7.57748H44.2762C44.3308 7.57748 44.3922 7.63206 44.3922 7.68663V8.1824C44.3922 8.2438 44.3308 8.30519 44.2762 8.30519H37.5493ZM42.5206 11.2889C42.4592 11.2889 42.4046 11.2343 42.4046 11.1797V9.67878C42.4046 9.57872 42.3728 9.55597 42.2568 9.55597H38.4908C38.4362 9.55597 38.3817 9.51732 38.3817 9.46274V8.92149C38.3817 8.86009 38.4362 8.82826 38.4908 8.82826H42.7821C43.1755 8.82826 43.2915 8.96697 43.2915 9.36267V11.1797C43.2915 11.2343 43.2369 11.2889 43.1824 11.2889H42.5183H42.5206ZM38.5408 4.52558C38.5408 4.1458 38.6955 4.00708 39.0889 4.00708H43.171C43.2415 4.00708 43.2801 4.03892 43.2801 4.10714V4.57789C43.2801 4.64839 43.2415 4.67795 43.171 4.67795H39.5301C39.4368 4.67795 39.43 4.67795 39.43 4.77802V5.16461H43.055C43.1096 5.16461 43.171 5.21009 43.171 5.26467V5.72178C43.171 5.78318 43.1096 5.82184 43.055 5.82184H39.43V6.19252C39.43 6.26984 39.4687 6.30851 39.546 6.30851H43.2028C43.287 6.30851 43.3347 6.34035 43.3347 6.40857V6.85657C43.3347 6.94071 43.2892 6.97938 43.2028 6.97938H39.0889C38.6796 6.97938 38.5408 6.84065 38.5408 6.46087V4.52104V4.52558Z" fill="#8A8A8A"/>
<path d="M45.925 7.47057C45.4679 7.47057 45.3383 7.34777 45.3383 6.92251V4.1094C45.3383 4.05482 45.3837 4.01615 45.4383 4.01615H46.1024C46.1569 4.01615 46.2115 4.05482 46.2115 4.1094V5.12138H47.8671V4.1003C47.8671 4.04572 47.9126 4.00023 47.9672 4.00023H48.6403C48.6949 4.00023 48.7404 4.04572 48.7404 4.1003V4.71204H50.0548V3.97067C50.0548 3.90017 50.0867 3.87061 50.1549 3.87061H50.8439C50.9144 3.87061 50.944 3.90244 50.944 3.97067V7.63432C50.944 7.70481 50.9122 7.74347 50.8439 7.74347H50.1549C50.0844 7.74347 50.0548 7.70481 50.0548 7.63432V6.85429H48.7404V6.95434C48.7404 7.29546 48.6016 7.47285 48.1605 7.47285H45.925V7.47057ZM47.8648 5.84002H46.2092V6.61322C46.2092 6.69736 46.2547 6.74512 46.348 6.74512H47.7238C47.8171 6.74512 47.8625 6.69963 47.8625 6.61322V5.84002H47.8648ZM46.8665 11.1888C46.464 11.1888 46.3412 11.041 46.3412 10.7089V9.77427C46.3412 9.44225 46.4503 9.31036 46.8597 9.31036H49.9593C50.0525 9.31036 50.0594 9.28761 50.0594 9.19437V8.92375C50.0594 8.80777 50.0525 8.80095 49.9502 8.80095H46.4321C46.3775 8.80095 46.323 8.76228 46.323 8.7077V8.1983C46.323 8.14372 46.3775 8.08914 46.4321 8.08914H50.3914C50.8235 8.08914 50.9258 8.20512 50.9258 8.56898V9.49684C50.9258 9.8607 50.8258 9.96757 50.3914 9.96757H47.3145C47.2212 9.96757 47.2144 9.98349 47.2144 10.0676V10.3837C47.2144 10.477 47.2212 10.477 47.3236 10.477H51.0122C51.0668 10.477 51.1214 10.5225 51.1214 10.5861V11.0819C51.1214 11.1365 51.06 11.1911 51.0213 11.1911H46.8687L46.8665 11.1888ZM48.7381 5.42157V6.14021H50.0525V5.42157H48.7381Z" fill="#8A8A8A"/>
<path d="M52.2881 9.30347L51.9856 8.91005C51.9151 8.81681 51.9856 8.72357 52.047 8.68491C53.3546 7.87987 54.444 6.51311 54.7305 5.39878C54.7692 5.22139 54.7623 5.18956 54.5827 5.18956H52.5883C52.5178 5.18956 52.4791 5.13498 52.4791 5.07358V4.55507C52.4791 4.49366 52.5337 4.44591 52.5951 4.44591H55.1148C55.5174 4.44591 55.7561 4.61648 55.7561 4.86436C55.7561 4.99626 55.7334 5.1418 55.7016 5.25778C55.5537 5.81495 55.3218 6.37893 54.9738 6.9361C55.3673 7.47734 56.0404 8.14138 56.4725 8.45067C56.543 8.50525 56.5817 8.58939 56.518 8.67581L56.1859 9.0556C56.1154 9.13292 56.0313 9.13974 55.9312 9.07152C55.5606 8.82364 54.8965 8.15048 54.4781 7.60923C53.9527 8.26646 53.2955 8.83954 52.5132 9.34213C52.4291 9.39671 52.3358 9.38761 52.2813 9.30347H52.2881ZM57.8847 7.44778V11.1046C57.8847 11.1751 57.8529 11.2046 57.7847 11.2046H57.0956C57.0251 11.2046 56.9955 11.1728 56.9955 11.1046V3.96835C56.9955 3.89785 57.0274 3.86829 57.0956 3.86829H57.7847C57.8552 3.86829 57.8847 3.90012 57.8847 3.96835V6.70413H58.9354C58.99 6.70413 59.0445 6.7428 59.0445 6.79738V7.34544C59.0445 7.40002 58.99 7.4455 58.9354 7.4455H57.8847V7.44778Z" fill="#8A8A8A"/>
<path d="M59.7268 9.49678L59.488 9.12609C59.4175 9.01011 59.4721 8.90096 59.5426 8.87139C60.6796 8.25283 61.6757 7.36364 62.0714 6.39713C62.1328 6.24931 62.1942 6.1879 61.9486 6.1879H59.961C59.8996 6.1879 59.8518 6.1265 59.8518 6.0651V5.55569C59.8518 5.49429 59.9064 5.44654 59.9678 5.44654H62.574C63.0152 5.44654 63.1698 5.64665 63.1698 5.83313C63.1698 5.95594 63.1471 6.08784 63.0993 6.22657C62.9219 6.65865 62.7195 7.06117 62.4489 7.44095C62.8423 7.87304 63.4086 8.33696 63.8475 8.6326C63.9317 8.68718 63.9089 8.7645 63.8543 8.84864L63.561 9.25798C63.5223 9.31939 63.4291 9.33531 63.329 9.26481C62.9583 9.03285 62.3238 8.48478 61.9532 8.05042C61.4187 8.6235 60.7547 9.117 59.9587 9.52634C59.8746 9.56501 59.7814 9.565 59.7268 9.4945V9.49678ZM60.5455 4.91894C60.5068 4.91894 60.4295 4.87345 60.4295 4.80295V4.33221C60.4295 4.26171 60.5068 4.21622 60.5455 4.21622H62.5558C62.6172 4.21622 62.6877 4.27762 62.6877 4.33902V4.79612C62.6877 4.85753 62.6263 4.91894 62.5558 4.91894H60.5455ZM65.4781 11.1046C65.4781 11.1751 65.4394 11.2046 65.3689 11.2046H64.6889C64.6344 11.2046 64.5798 11.166 64.5798 11.1046V3.96835C64.5798 3.91377 64.6344 3.86829 64.6889 3.86829H65.3689C65.4394 3.86829 65.4781 3.90012 65.4781 3.96835V11.1046Z" fill="#8A8A8A"/>
<path d="M70.4427 7.71852V9.21035H73.3581C73.4127 9.21035 73.4741 9.27176 73.4741 9.32634V9.83574C73.4741 9.89032 73.4127 9.95172 73.3581 9.95172H66.6244C66.563 9.95172 66.5153 9.89032 66.5153 9.83574V9.32634C66.5153 9.26493 66.5607 9.21035 66.6244 9.21035H69.5535V7.71852H68.1163C67.7069 7.71852 67.5295 7.50248 67.5295 7.13862V4.88038C67.5295 4.48696 67.691 4.37781 68.0867 4.37781H72.3302C72.4007 4.37781 72.4394 4.40965 72.4394 4.47787V5.01912C72.4394 5.08961 72.4007 5.11918 72.3302 5.11918H68.5574C68.4642 5.11918 68.4187 5.16465 68.4187 5.25107V6.84297C68.4187 6.93621 68.4414 6.9817 68.5574 6.9817H72.3689C72.453 6.9817 72.4917 6.98852 72.4917 7.07493V7.60026C72.4917 7.6844 72.453 7.71624 72.3985 7.71624H70.4427V7.71852Z" fill="#8A8A8A"/>
<path d="M76.3259 6.8907C76.3964 6.8907 76.435 6.92936 76.435 7.00668V9.15574H77.3015V7.00668C77.3015 6.92936 77.3401 6.8907 77.4106 6.8907H78.0519C78.1224 6.8907 78.1611 6.92936 78.1611 7.00668V9.15574H80.5808C80.6354 9.15574 80.7036 9.21713 80.7036 9.27171V9.78113C80.7036 9.83571 80.6331 9.8971 80.5808 9.8971H73.9403C73.8698 9.8971 73.8243 9.83571 73.8243 9.78113V9.27171C73.8243 9.21031 73.8698 9.15574 73.9403 9.15574H75.5799V7.00668C75.5799 6.92936 75.6186 6.8907 75.6891 6.8907H76.3304H76.3259ZM79.6052 8.28247C79.5824 8.36661 79.5438 8.44393 79.4574 8.43711L78.8229 8.39162C78.7387 8.3848 78.7296 8.33023 78.7524 8.24381C78.9002 7.47061 78.9457 6.14932 78.9457 5.30562C78.9457 5.1578 78.8843 5.14416 78.7365 5.14416H74.8318C74.7772 5.14416 74.7158 5.10549 74.7158 5.05091V4.49376C74.7158 4.43236 74.7772 4.40051 74.8318 4.40051H79.3164C79.6484 4.40051 79.8349 4.57108 79.8349 4.94859C79.8349 6.34036 79.7507 7.51608 79.6029 8.28019L79.6052 8.28247Z" fill="#8A8A8A"/>
<path d="M86.1454 11.2116C86.084 11.2116 86.0294 11.157 86.0294 11.1025V9.54922C86.0294 9.44916 85.9976 9.42642 85.8816 9.42642H82.0861C82.0315 9.42642 81.9769 9.38094 81.9769 9.32636V8.77828C81.9769 8.71688 82.0315 8.68505 82.0861 8.68505H82.8911V7.85726H81.1582C81.0877 7.85726 81.0491 7.8186 81.0491 7.74128V7.24551C81.0491 7.18411 81.0946 7.12953 81.1582 7.12953H87.892C87.9465 7.12953 88.0079 7.19094 88.0079 7.24551V7.74128C88.0079 7.80268 87.9465 7.85726 87.892 7.85726H86.1591V8.68505H86.4069C86.8004 8.68505 86.9163 8.82377 86.9163 9.21947V11.107C86.9163 11.1616 86.8618 11.2162 86.8072 11.2162H86.1431L86.1454 11.2116ZM84.5285 6.62696C82.9662 6.62696 82.0702 6.07888 82.0702 5.26701C82.0702 4.45514 82.9662 3.93665 84.5285 3.93665C86.0908 3.93665 86.98 4.48471 86.98 5.26701C86.98 6.04931 86.0977 6.62696 84.5285 6.62696ZM82.9525 5.28976C82.9525 5.68319 83.6325 5.9629 84.5308 5.9629C85.4291 5.9629 86.0999 5.68546 86.0999 5.28976C86.0999 4.89406 85.4268 4.60069 84.5308 4.60069C83.6348 4.60069 82.9525 4.90998 82.9525 5.28976ZM83.7644 8.68505H85.2881V7.85726H83.7644V8.68505Z" fill="#8A8A8A"/>
<path d="M88.7198 7.89578C88.6652 7.81163 88.7266 7.73431 88.7971 7.69565C89.9251 7.2249 90.9393 6.43578 91.2236 5.87862C91.2623 5.80812 91.3009 5.76263 91.1395 5.76263H89.1519C89.0905 5.76263 89.0427 5.70124 89.0427 5.63984V5.13725C89.0427 5.07584 89.0973 5.04401 89.1587 5.04401H91.7489C92.1583 5.04401 92.3902 5.15317 92.3902 5.43062C92.3902 5.53068 92.3288 5.70124 92.2742 5.82404C92.1264 6.11058 91.9104 6.41076 91.6238 6.71322C91.9786 7.02933 92.5199 7.35454 92.8996 7.50236C93.0156 7.54102 93.0384 7.61834 92.9701 7.7184L92.7541 8.08909C92.7086 8.18233 92.6313 8.20507 92.5153 8.15958C92.1355 8.02086 91.4487 7.56375 91.0849 7.2249C90.5368 7.66609 89.8864 8.06862 89.1519 8.3688C89.0973 8.39154 88.9813 8.39154 88.9267 8.2983L88.7175 7.89578H88.7198ZM89.8023 4.63239C89.7636 4.63239 89.6863 4.59372 89.6863 4.50958V4.06841C89.6863 3.99791 89.7636 3.95243 89.8023 3.95243H91.6125C91.6739 3.95243 91.7353 4.01382 91.7353 4.07523V4.50049C91.7353 4.56189 91.6807 4.63239 91.6125 4.63239H89.8023ZM89.941 9.89929C89.941 9.16475 90.837 8.60077 92.2833 8.60077C93.7297 8.60077 94.603 9.16475 94.603 9.89929C94.603 10.6338 93.7297 11.1978 92.2765 11.1978C90.8234 11.1978 89.941 10.6498 89.941 9.89929ZM90.8848 9.89929C90.8848 10.2472 91.4033 10.5179 92.2765 10.5179C93.1498 10.5179 93.6683 10.2472 93.6683 9.89929C93.6683 9.55135 93.1589 9.28073 92.2833 9.28073C91.4078 9.28073 90.8848 9.55135 90.8848 9.89929ZM92.4926 6.28796C92.4926 6.23338 92.5471 6.19473 92.6017 6.19473H93.6615V3.96835C93.6615 3.89785 93.6933 3.86829 93.7615 3.86829H94.4506C94.5211 3.86829 94.5507 3.90012 94.5507 3.96835V8.2369C94.5507 8.3074 94.5188 8.34607 94.4506 8.34607H93.7615C93.691 8.34607 93.6615 8.31423 93.6615 8.246V6.91562H92.6017C92.5471 6.91562 92.4926 6.87014 92.4926 6.81556V6.29024V6.28796Z" fill="#8A8A8A"/>
</svg>
