<svg width="101" height="15" viewBox="0 0 101 15" fill="none" xmlns="http://www.w3.org/2000/svg">
<path d="M21.8366 6.3995H20.3585V7.31511H21.8366V10.4137H23.1245V4.67639H21.8366V6.3995Z" fill="#8A8A8A"/>
<path d="M18.2288 10.4138H16.9409V12.7432C16.9409 13.0881 17.2201 13.366 17.5636 13.366H23.123V12.5188H18.2274V10.4138H18.2288Z" fill="#8A8A8A"/>
<path d="M19.9287 9.52001L20.6705 8.82338L19.0227 6.99352C18.8831 6.83339 18.8269 6.68558 18.8269 6.48712V5.67279H20.5692V4.87488H15.8556V5.67279H17.5979V6.49808C17.5979 6.6979 17.5404 6.84434 17.4008 7.00584L15.6462 8.9534L16.388 9.64045L18.2124 7.58066L19.9287 9.52275V9.52001Z" fill="#8A8A8A"/>
<path d="M25.4703 8.02956H30.8107C31.0406 8.02956 31.2267 7.84343 31.2267 7.6135V4.67505H29.9388V5.65088H26.3503V4.67505H25.0624L25.0542 7.61213C25.0542 7.84206 25.2403 8.02956 25.4703 8.02956ZM26.3503 6.45016H29.9388V7.23165H26.3503V6.45016Z" fill="#8A8A8A"/>
<path d="M24.1632 9.5694H27.4917V10.4029H24.8284V11.2008H30.0073V13.3728H31.2952V10.819C31.2952 10.589 31.109 10.4029 30.8791 10.4029H28.7783V9.5694H32.1068V8.77148H24.1619V9.5694H24.1632Z" fill="#8A8A8A"/>
<path d="M40.7111 8.90137H32.7662V9.69928H40.7111V8.90137Z" fill="#8A8A8A"/>
<path d="M39.4535 10.4235H33.6273V11.2214H38.5817V13.377H39.8696V10.8395C39.8696 10.6096 39.6835 10.4235 39.4535 10.4235Z" fill="#8A8A8A"/>
<path d="M34.0721 8.26504H39.9079V7.5643H34.9439V6.81566H39.7615V6.11629H34.9439V5.4265H39.9079V4.67786H33.6574V7.85035C33.6574 8.08028 33.8435 8.26641 34.0735 8.26641L34.0721 8.26504Z" fill="#8A8A8A"/>
<path d="M46.0106 8.57288V8.18556H47.386V9.29963H48.6438V4.67639H47.386V5.55779H46.0106V4.76398H44.7227V5.98754H42.7792V4.76398H41.4913V8.57288C41.4913 8.80281 41.6775 8.98894 41.9074 8.98894H45.5945C45.8244 8.98894 46.0106 8.80281 46.0106 8.57288ZM46.0106 6.30643H47.386V7.43692H46.0106V6.30643ZM44.7227 8.19103H42.7792V6.78682H44.7227V8.19103Z" fill="#8A8A8A"/>
<path d="M43.8467 11.866H48.6438V9.72412H42.5588V10.522H47.386V11.1174H42.5588V12.7337C42.5588 13.0786 42.838 13.3565 43.1816 13.3565H48.8395V12.5093H43.8467V11.866Z" fill="#8A8A8A"/>
<path d="M57.0512 4.67639H55.7634V13.3658H57.0512V8.94926H58.0298V8.05417H57.0512V4.67639Z" fill="#8A8A8A"/>
<path d="M53.0084 7.43029V5.67022H54.722V4.87231H50.0084V5.67022H51.7219V7.43987C51.7219 7.66843 51.6768 7.84361 51.5604 8.0667L49.7579 11.4677L50.7228 12.0042L52.3734 8.78112L54.0746 11.8455L55.0025 11.2542L53.1713 8.05712C53.0536 7.85045 53.0098 7.68074 53.0098 7.42892L53.0084 7.43029Z" fill="#8A8A8A"/>
<path d="M66.0049 4.67639H64.717V13.3658H66.0049V4.67639Z" fill="#8A8A8A"/>
<path d="M61.7265 7.3316V6.25723H63.4797V5.45932H61.7758V4.3822H60.44V5.45932H58.7361V6.25723H60.44V7.34119C60.44 7.56975 60.3948 7.7463 60.2785 7.96802L58.5143 11.3595L59.4409 11.9042L61.0915 8.68244L62.7913 11.7454L63.7015 11.1268L61.8894 7.95844C61.7717 7.75177 61.7265 7.58069 61.7265 7.33023V7.3316Z" fill="#8A8A8A"/>
<path d="M71.723 9.82371H74.2098V9.0258H69.3635V5.96417H74.1113V5.16626H68.0756V9.40902C68.0756 9.63895 68.2618 9.82508 68.4917 9.82508H70.4351V11.8342H67.097V12.6814H75.0419V11.8342H71.723V9.82508V9.82371Z" fill="#8A8A8A"/>
<path d="M81.5691 10.2715H82.8569V5.58123C82.8569 5.3513 82.6708 5.16516 82.4409 5.16516H76.6926V5.96308H81.5677V10.2702L81.5691 10.2715Z" fill="#8A8A8A"/>
<path d="M80.7711 8.61255H79.5818V11.8329H78.6169V8.61255H77.4275V11.8329H75.7838V12.6801H83.7287V11.8329H80.7711V8.61255Z" fill="#8A8A8A"/>
<path d="M88.2875 7.98997C90.1077 7.98997 91.4271 7.24543 91.4271 6.22033C91.4271 5.19522 90.1064 4.45068 88.2875 4.45068C86.4686 4.45068 85.1574 5.1788 85.1574 6.22033C85.1574 7.26185 86.474 7.98997 88.2875 7.98997ZM88.2875 5.2486C89.3605 5.2486 90.1406 5.65782 90.1406 6.22033C90.1406 6.69798 89.5042 7.18247 88.2875 7.18247C87.0708 7.18247 86.4439 6.69798 86.4439 6.22033C86.4439 5.58254 87.3705 5.2486 88.2875 5.2486Z" fill="#8A8A8A"/>
<path d="M84.3446 9.4764H86.3031V10.6562H85.2164V11.4541H90.1503V13.3661H91.4382V11.0709C91.4382 10.8409 91.2521 10.6548 91.0222 10.6548H90.331V9.47504H92.2895V8.67712H84.3446V9.47504V9.4764ZM87.591 9.4764H89.1033V10.6562H87.591V9.4764Z" fill="#8A8A8A"/>
<path d="M99.1422 4.67639V6.64448H97.6736V7.53956H99.1422V9.47618H100.43V4.67639H99.1422Z" fill="#8A8A8A"/>
<path d="M97.2918 9.43654L98.0829 8.68243L96.3981 6.95932C96.2585 6.80877 96.201 6.66233 96.201 6.45156V6.08203H97.905V5.28412H96.2407V4.39587H94.9035V5.28412H93.19V6.08203H94.9624V6.46114C94.9624 6.67191 94.9049 6.81972 94.764 6.97027L92.9628 8.80971L93.7525 9.55424L95.5755 7.5451L97.2904 9.43654H97.2918Z" fill="#8A8A8A"/>
<path d="M97.4328 9.84558C95.6727 9.84558 94.4437 10.6134 94.4437 11.7138C94.4437 12.8141 95.7001 13.5819 97.4328 13.5819C99.1654 13.5819 100.422 12.7963 100.422 11.7138C100.422 10.6312 99.1928 9.84558 97.4328 9.84558ZM97.4328 12.7621C96.2776 12.7621 95.6727 12.2352 95.6727 11.7138C95.6727 11.0185 96.5582 10.6544 97.4328 10.6544C98.3073 10.6544 99.1914 11.0185 99.1914 11.7138C99.1914 12.2352 98.5865 12.7621 97.4328 12.7621Z" fill="#8A8A8A"/>
<path d="M3.90601 0.00938623C3.63913 -0.0467276 3.38867 0.155829 3.38867 0.428187V3.70058L12.3313 1.79955L3.90601 0.00938623Z" fill="#8A8A8A"/>
<path d="M6.64187 11.9085L6.14369 11.1598C5.92607 10.8341 5.81111 10.4509 5.81111 10.0581V9.43126C5.81111 9.17944 5.63456 8.96045 5.3882 8.90845L1.81744 8.14612V14.9989H5.81111V13.9724C5.81111 13.9477 5.78921 13.93 5.76458 13.9354C5.60445 13.9696 5.44158 13.9888 5.27597 13.9888C4.98309 13.9888 4.68473 13.9327 4.39731 13.8136C4.32204 13.7821 4.27551 13.6959 4.30288 13.6193C4.33162 13.5372 4.42332 13.4975 4.5027 13.5303C4.91329 13.7014 5.35946 13.7329 5.78237 13.622C5.79879 13.6179 5.81111 13.6029 5.81111 13.5851V13.1403C5.81111 12.9747 5.94523 12.8405 6.11084 12.8405H6.14232C6.62134 12.8405 6.90738 12.3068 6.64187 11.9071V11.9085Z" fill="#8A8A8A"/>
<path d="M9.36694 6.34493V13.3824H12.3287C12.742 13.3824 13.0773 13.0471 13.0773 12.6338V1.95984L0.906067 4.54655L9.36831 6.34493H9.36694Z" fill="#8A8A8A"/>
<path d="M0.158691 4.7052V15H1.44794V7.88864L8.2952 6.43378L0.158691 4.7052Z" fill="#8A8A8A"/>
<path d="M5.45549 8.59343C5.84828 8.67692 6.13296 9.02866 6.13296 9.43104V10.0579C6.13296 10.3877 6.23013 10.7066 6.41216 10.9803L6.91034 11.729C7.09921 12.0123 7.11563 12.375 6.95551 12.6747C6.79538 12.9744 6.48333 13.1606 6.14254 13.1606H6.13296V14.9986H8.24886C8.66219 14.9986 8.9975 14.6633 8.9975 14.25V6.60071L2.54578 7.97207L5.45412 8.59206L5.45549 8.59343Z" fill="#8A8A8A"/>
</svg>
