<svg width="87" height="15" viewBox="0 0 87 15" fill="none" xmlns="http://www.w3.org/2000/svg">
<path d="M19.371 12.2727C19.371 11.9661 19.2451 11.8013 18.9088 11.8013C18.8035 11.8013 18.4317 11.8196 18.4317 12.3608V13.2406C18.4317 13.8103 18.5965 13.9533 18.9088 13.9533C19.1479 13.9533 19.3058 13.8893 19.3744 13.8389V13.061H18.8973V12.7738H19.7085V14.0369C19.4934 14.1513 19.2451 14.2325 18.9088 14.2325C18.3608 14.2325 18.0919 13.9476 18.0919 13.2268V12.3734C18.0919 11.8551 18.3596 11.5233 18.9088 11.5233C19.4579 11.5233 19.7382 11.7281 19.7188 12.2727H19.371Z" fill="#8A8A8A"/>
<path d="M21.5037 11.5769H21.8389L21.1273 13.1866V14.1774H20.7955V13.1866L20.0988 11.5769H20.4694L20.9763 12.8331L21.5025 11.5769H21.5037Z" fill="#8A8A8A"/>
<path d="M22.2003 14.1774V11.5769H23.5377V11.8652H22.531V12.7004H23.4668V12.9876H22.531V13.8891H23.5606V14.1762H22.2015L22.2003 14.1774Z" fill="#8A8A8A"/>
<path d="M24.0228 13.2267V12.3732C24.0228 11.855 24.2894 11.5232 24.842 11.5232C25.3946 11.5232 25.6611 11.855 25.6611 12.3732V13.2267C25.6611 13.9475 25.3946 14.2324 24.842 14.2324C24.2894 14.2324 24.0228 13.9475 24.0228 13.2267ZM25.3202 13.2416V12.3618C25.3202 11.8195 24.9495 11.8023 24.842 11.8023C24.7344 11.8023 24.3626 11.8207 24.3626 12.3618V13.2416C24.3626 13.8113 24.5274 13.9544 24.842 13.9544C25.1566 13.9544 25.3202 13.8113 25.3202 13.2416Z" fill="#8A8A8A"/>
<path d="M28.0763 11.5769V14.1774H27.6187L26.5936 11.9224H26.5833V14.1774H26.2916V11.5769H26.7583L27.7709 13.8044H27.7777V11.5769H28.0752H28.0763Z" fill="#8A8A8A"/>
<path d="M29.9595 12.2726C29.9595 11.966 29.8313 11.8012 29.495 11.8012C29.3931 11.8012 29.0167 11.8195 29.0167 12.3607V13.2405C29.0167 13.8102 29.1838 13.9532 29.495 13.9532C29.7318 13.9532 29.8931 13.8891 29.9618 13.8388V13.0608H29.4835V12.7737H30.2924V14.0367C30.0784 14.1511 29.8325 14.2324 29.495 14.2324C28.9435 14.2324 28.6781 13.9475 28.6781 13.2267V12.3732C28.6781 11.855 28.9435 11.5232 29.495 11.5232C30.0464 11.5232 30.3256 11.728 30.3038 12.2726H29.9595Z" fill="#8A8A8A"/>
<path d="M31.2043 13.404V13.4795C31.2043 13.8319 31.4263 13.944 31.6413 13.944C31.9056 13.944 32.1024 13.8319 32.1024 13.5241C32.1024 12.9464 30.9366 13.0116 30.9366 12.2313C30.9366 11.768 31.2649 11.5243 31.702 11.5243C32.1756 11.5243 32.4411 11.7543 32.4216 12.284H32.0738C32.0784 11.9979 31.9869 11.8115 31.6757 11.8115C31.4777 11.8115 31.2764 11.9121 31.2764 12.1924C31.2764 12.7668 32.441 12.6832 32.441 13.5081C32.441 14.055 32.0646 14.2323 31.6345 14.2323C30.8679 14.2392 30.8679 13.6523 30.8725 13.4029H31.2032L31.2043 13.404Z" fill="#8A8A8A"/>
<path d="M33.5759 11.5769H33.997L34.8413 14.1774H34.4706L34.283 13.5584H33.2773L33.0851 14.1774H32.7476L33.5771 11.5769H33.5759ZM33.7761 11.8835H33.7693L33.3643 13.2701H34.1937L33.7773 11.8835H33.7761Z" fill="#8A8A8A"/>
<path d="M37.0253 11.5769V14.1774H36.5711L35.5472 11.9224H35.5369V14.1774H35.2405V11.5769H35.7096L36.7221 13.8044H36.729V11.5769H37.0253Z" fill="#8A8A8A"/>
<path d="M38.9084 12.2726C38.9084 11.966 38.7826 11.8012 38.4485 11.8012C38.3444 11.8012 37.9691 11.8195 37.9691 12.3607V13.2405C37.9691 13.8102 38.1316 13.9532 38.4485 13.9532C38.6853 13.9532 38.8466 13.8891 38.9119 13.8388V13.0608H38.4348V12.7737H39.2459V14.0367C39.032 14.1511 38.7826 14.2324 38.4485 14.2324C37.8971 14.2324 37.6305 13.9475 37.6305 13.2267V12.3732C37.6305 11.855 37.8971 11.5232 38.4485 11.5232C39 11.5232 39.2734 11.728 39.2562 12.2726H38.9096H38.9084Z" fill="#8A8A8A"/>
<path d="M41.6989 11.5769V14.1774H41.247L40.2219 11.9224H40.2139V14.1774H39.9199V11.5769H40.3866L41.3946 13.8044H41.4049V11.5769H41.7H41.6989Z" fill="#8A8A8A"/>
<path d="M42.923 11.5769H43.3463L44.1918 14.1774H43.8211L43.6346 13.5584H42.6279L42.4356 14.1774H42.0981L42.923 11.5769ZM43.1244 11.8835H43.1187L42.7102 13.2701H43.5443L43.1255 11.8835H43.1244Z" fill="#8A8A8A"/>
<path d="M44.8874 14.1774H44.5773V11.5769H45.1139L45.7706 13.7609H45.7775L46.4387 11.5769H46.9879V14.1774H46.6573V11.8652H46.6504L45.9205 14.1774H45.6047L44.8954 11.8652H44.8874V14.1774Z" fill="#8A8A8A"/>
<path d="M47.616 11.5769H48.4169C48.7498 11.5769 48.9855 11.697 49.1148 11.9739C49.2177 12.1924 49.2292 12.7118 49.2292 12.7942C49.2292 13.3502 49.1788 13.6694 49.0713 13.8433C48.9317 14.0664 48.6697 14.1774 48.2132 14.1774H47.616V11.5769ZM47.9501 13.8902H48.2613C48.7223 13.8902 48.8917 13.7152 48.8917 13.11V12.5848C48.8917 12.0586 48.7304 11.8652 48.386 11.8652H47.9501V13.8902Z" fill="#8A8A8A"/>
<path d="M49.8355 13.2267V12.3732C49.8355 11.855 50.1044 11.5232 50.6558 11.5232C51.2073 11.5232 51.4704 11.855 51.4704 12.3732V13.2267C51.4704 13.9475 51.2061 14.2324 50.6558 14.2324C50.1055 14.2324 49.8355 13.9475 49.8355 13.2267ZM51.1329 13.2416V12.3618C51.1329 11.8195 50.7576 11.8023 50.6558 11.8023C50.554 11.8023 50.1742 11.8207 50.1742 12.3618V13.2416C50.1742 13.8113 50.3412 13.9544 50.6558 13.9544C50.9704 13.9544 51.1329 13.8113 51.1329 13.2416Z" fill="#8A8A8A"/>
<path d="M52.9085 13.2267V12.3732C52.9085 11.855 53.1739 11.5232 53.7254 11.5232C54.2768 11.5232 54.5411 11.855 54.5411 12.3732V13.2267C54.5411 13.9475 54.278 14.2324 53.7254 14.2324C53.1728 14.2324 52.9085 13.9475 52.9085 13.2267ZM54.2059 13.2416V12.3618C54.2059 11.8195 53.8295 11.8023 53.7265 11.8023C53.6236 11.8023 53.246 11.8207 53.246 12.3618V13.2416C53.246 13.8113 53.4119 13.9544 53.7265 13.9544C54.0411 13.9544 54.2059 13.8113 54.2059 13.2416Z" fill="#8A8A8A"/>
<path d="M55.1315 14.1774V11.5769H56.4208V11.8652H55.4644V12.7004H56.3694V12.9876H55.4644V14.1762H55.1315V14.1774Z" fill="#8A8A8A"/>
<path d="M56.7675 14.1774V11.5769H58.0546V11.8652H57.0981V12.7004H58.0031V12.9876H57.0981V14.1762H56.7664L56.7675 14.1774Z" fill="#8A8A8A"/>
<path d="M58.7993 14.1774H58.4698V11.5769H58.7993V14.1774Z" fill="#8A8A8A"/>
<path d="M60.6116 12.2954C60.615 12.1455 60.6013 11.9979 60.5338 11.9155C60.464 11.8332 60.3107 11.8034 60.2432 11.8034C59.9686 11.8034 59.8622 11.9693 59.8508 12.0048C59.8382 12.0334 59.7764 12.0986 59.7764 12.5448V13.2404C59.7764 13.8776 59.9835 13.9531 60.2363 13.9531C60.3393 13.9531 60.6448 13.9177 60.6494 13.4097H60.9891C61.0063 14.2323 60.4251 14.2323 60.2558 14.2323C59.932 14.2323 59.4355 14.2106 59.4355 13.2003V12.4658C59.4355 11.7313 59.7593 11.522 60.2741 11.522C60.7889 11.522 60.9823 11.7874 60.9514 12.2942H60.6116V12.2954Z" fill="#8A8A8A"/>
<path d="M61.5017 14.1774V11.5769H62.8426V11.8652H61.8346V12.7004H62.7705V12.9876H61.8346V13.8891H62.8666V14.1762H61.5017V14.1774Z" fill="#8A8A8A"/>
<path d="M64.164 13.2267V12.3732C64.164 11.855 64.4306 11.5232 64.9843 11.5232C65.538 11.5232 65.7989 11.855 65.7989 12.3732V13.2267C65.7989 13.9475 65.5312 14.2324 64.9843 14.2324C64.4374 14.2324 64.164 13.9475 64.164 13.2267ZM65.4614 13.2416V12.3618C65.4614 11.8195 65.085 11.8023 64.9843 11.8023C64.8836 11.8023 64.5026 11.8207 64.5026 12.3618V13.2416C64.5026 13.8113 64.6697 13.9544 64.9843 13.9544C65.2989 13.9544 65.4614 13.8113 65.4614 13.2416Z" fill="#8A8A8A"/>
<path d="M66.3858 14.1774V11.5769H67.6763V11.8652H66.7176V12.7004H67.6248V12.9876H66.7176V14.1762H66.3858V14.1774Z" fill="#8A8A8A"/>
<path d="M68.8844 14.1774V11.5769H70.2218V11.8652H69.2139V12.7004H70.1509V12.9876H69.2139V13.8891H70.2436V14.1762H68.8844V14.1774Z" fill="#8A8A8A"/>
<path d="M70.7286 11.5769H71.5226C71.8567 11.5769 72.0935 11.697 72.2239 11.9739C72.3303 12.1924 72.3406 12.7118 72.3406 12.7942C72.3406 13.3502 72.2892 13.6694 72.1828 13.8433C72.0397 14.0664 71.78 14.1774 71.3247 14.1774H70.7298V11.5769H70.7286ZM71.0558 13.8902H71.3705C71.8327 13.8902 71.9997 13.7152 71.9997 13.11V12.5848C71.9997 12.0586 71.8395 11.8652 71.4906 11.8652H71.0547V13.8902H71.0558Z" fill="#8A8A8A"/>
<path d="M72.9459 11.5769H73.2765V13.2415C73.2765 13.8113 73.4504 13.9543 73.7616 13.9543C74.0728 13.9543 74.2513 13.8113 74.2513 13.2415V11.5769H74.5807V13.2267C74.5807 13.9474 74.3153 14.2323 73.7616 14.2323C73.2078 14.2323 72.9459 13.9474 72.9459 13.2267V11.5769Z" fill="#8A8A8A"/>
<path d="M76.3393 12.2954C76.3427 12.1455 76.3301 11.9979 76.2615 11.9155C76.194 11.8332 76.0407 11.8034 75.9709 11.8034C75.6975 11.8034 75.5899 11.9693 75.5785 12.0048C75.5682 12.0334 75.5041 12.0986 75.5041 12.5448V13.2404C75.5041 13.8776 75.71 13.9531 75.9663 13.9531C76.0681 13.9531 76.3725 13.9177 76.3782 13.4097H76.718C76.7329 14.2323 76.1517 14.2323 75.9858 14.2323C75.6608 14.2323 75.1655 14.2106 75.1655 13.2003V12.4658C75.1655 11.7313 75.487 11.522 75.9972 11.522C76.5075 11.522 76.7123 11.7874 76.6791 12.2942H76.337L76.3393 12.2954Z" fill="#8A8A8A"/>
<path d="M77.8174 11.5769H78.2407L79.0885 14.1774H78.7167L78.5279 13.5584H77.5222L77.33 14.1774H76.9948L77.8185 11.5769H77.8174ZM78.0211 11.8835H78.013L77.608 13.2701H78.4398L78.0222 11.8835H78.0211Z" fill="#8A8A8A"/>
<path d="M80.6604 11.5769V11.8652H79.9751V14.1774H79.641V11.8652H78.9614V11.5769H80.6604Z" fill="#8A8A8A"/>
<path d="M81.4133 14.1774H81.0804V11.5769H81.4133V14.1774Z" fill="#8A8A8A"/>
<path d="M82.0631 13.2267V12.3732C82.0631 11.855 82.332 11.5232 82.8846 11.5232C83.4371 11.5232 83.7014 11.855 83.7014 12.3732V13.2267C83.7014 13.9475 83.4337 14.2324 82.8846 14.2324C82.3354 14.2324 82.0631 13.9475 82.0631 13.2267ZM83.3628 13.2416V12.3618C83.3628 11.8195 82.9875 11.8023 82.8846 11.8023C82.7816 11.8023 82.404 11.8207 82.404 12.3618V13.2416C82.404 13.8113 82.5699 13.9544 82.8846 13.9544C83.1992 13.9544 83.3628 13.8113 83.3628 13.2416Z" fill="#8A8A8A"/>
<path d="M86.1143 11.5769V14.1774H85.6589L84.635 11.9224H84.6258V14.1774H84.3318V11.5769H84.7986L85.8099 13.8044H85.8179V11.5769H86.1131H86.1143Z" fill="#8A8A8A"/>
<path d="M86.1588 7.6768V2.29048H84.8054V3.83842H83.6556V4.4894H84.8054V5.86915C84.3352 5.63233 83.7666 5.48017 83.1488 5.44813V5.44013C83.1488 5.44013 81.4429 4.56033 80.983 3.25036V2.99294H82.873V2.34196H80.983V1.81226H79.6902V2.34196H77.7258V2.99294H79.6902V3.16456C79.2726 4.52258 77.4936 5.44127 77.4936 5.44127L77.521 6.17348C78.8379 5.94466 79.7714 5.08775 80.3195 4.40474C80.6501 4.80974 81.1134 5.25478 81.7072 5.59686C80.4945 5.91949 79.633 6.72836 79.633 7.67565C79.633 8.91354 81.0929 9.91461 82.8959 9.91461C84.4919 9.91461 85.8225 9.1252 86.1016 8.08409L86.1577 8.11498V7.67565L86.1588 7.6768ZM82.8971 9.26592C81.8971 9.26592 81.0871 8.55659 81.0871 7.67565C81.0871 6.79471 81.8971 6.08996 82.8971 6.08996C82.9463 6.08996 83.0012 6.09225 83.0538 6.09339C83.0767 6.09683 83.0973 6.10598 83.1224 6.11055V6.1014C84.0125 6.19979 84.7047 6.86679 84.7047 7.67565C84.7047 8.55659 83.8958 9.26592 82.8982 9.26592H82.8971Z" fill="#8A8A8A"/>
<path d="M23.2072 2.59265H23.1901L23.2358 2.17163H18.0875V2.9599H21.7073C21.5964 3.70698 20.9705 5.45399 18.0291 5.52035L18.0028 6.27887C18.0028 6.27887 22.8983 6.44705 23.2072 2.59265ZM26.8111 7.11176V2.22883H23.8548V2.87867H25.4588V3.88317H23.8548V4.53529H25.4588V5.64963C24.9805 5.42539 24.4096 5.29267 23.7987 5.29267C22.1055 5.29267 20.9236 6.25484 20.9236 7.48816C20.9236 8.72147 22.1055 9.76602 23.7987 9.76602C25.4919 9.76602 26.8614 8.76495 26.8614 7.53049C26.8614 7.38519 26.8408 7.24447 26.8099 7.10833L26.8111 7.11176ZM23.7998 9.17682C22.8159 9.17682 22.1123 8.44575 22.1123 7.53621C22.1123 6.62667 22.8159 5.88645 23.7998 5.88645C24.7838 5.88645 25.5755 6.62324 25.5755 7.53392C25.5755 8.44461 24.7803 9.17682 23.7998 9.17682Z" fill="#8A8A8A"/>
<path d="M37.4406 2.87864V2.2288H34.9111V5.80748C34.4191 5.56379 33.8276 5.41277 33.1812 5.38417C32.8632 5.22171 31.4903 4.45747 31.0864 3.29966V2.06177H29.7925V3.21271C29.3737 4.57416 27.5958 5.49286 27.5958 5.49286L27.6256 6.22507C28.9435 5.99625 29.8737 5.14048 30.4217 4.45632C30.7283 4.83043 31.1139 5.26518 31.6344 5.58553C30.5155 5.94133 29.7387 6.71473 29.7387 7.61512C29.7387 8.85072 31.1962 9.85065 32.9982 9.85065C34.8001 9.85065 36.2096 8.88505 36.2576 7.67919L36.2634 7.68148V7.61512V2.87864H37.4418H37.4406ZM32.9959 9.20539C31.9982 9.20539 31.1894 8.49377 31.1894 7.61512C31.1894 6.73647 31.9582 6.06718 32.9158 6.03057C33.0153 6.04201 33.1171 6.05002 33.2224 6.05002V6.04087C34.1148 6.13926 34.8035 6.80511 34.8035 7.61398C34.8035 8.49263 33.9969 9.20424 32.9959 9.20424V9.20539Z" fill="#8A8A8A"/>
<path d="M45.0121 2.22876V5.0123H39.5788V2.22876H38.3684V5.66214H45.0121V6.56024H39.1052V6.67693V9.43416H46.3598V8.05211V2.8786H47.5428V2.22876H45.0121ZM45.0086 8.78318H40.4518V7.21236H45.0086V8.78318Z" fill="#8A8A8A"/>
<path d="M58.3692 2.34204V2.99302H64.4477V8.75345H63.2956V5.26745H61.9433V8.75345H60.7626V5.26745H59.4126V8.75345H58.0328V9.40214H65.7977V2.34204H58.3692Z" fill="#8A8A8A"/>
<path d="M56.12 2.99302V2.34204H48.696V6.39207H49.7612V6.39665H51.8743V8.75459H48.696V9.40557H56.12V8.75459H53.2232V6.39665H56.12V5.74567H50.0449V2.99302H56.12Z" fill="#8A8A8A"/>
<path d="M76.2363 6.3395V5.69195H67.2885V6.3395H69.468V7.12434H67.9052V7.77646H74.2102V9.40219H75.5602V7.12434H73.8452V6.3395H76.2352H76.2363ZM72.4918 7.12434H70.8203V6.3395H72.4918V7.12434ZM71.7493 5.17025C73.8589 5.17025 75.5751 4.37397 75.5751 3.3935C75.5751 2.41303 73.8589 1.62476 71.7493 1.62476C69.6396 1.62476 67.9189 2.41646 67.9189 3.3935C67.9189 4.37054 69.6327 5.17025 71.7493 5.17025ZM71.7493 2.29976C72.8796 2.29976 73.7983 2.78943 73.7983 3.3935C73.7983 3.99757 72.8796 4.4941 71.7493 4.4941C70.6189 4.4941 69.6968 4.00444 69.6968 3.3935C69.6968 2.78256 70.6155 2.29976 71.7493 2.29976Z" fill="#8A8A8A"/>
<path d="M9.21847 14.293C4.36529 15.9005 1.44561 13.1661 0.927339 12.4602C-1.40315 9.32089 1.0692 6.479 3.81842 5.35437C3.81842 5.35437 0.999416 6.83366 1.63323 9.15614C2.26591 11.4798 5.04831 12.3596 7.65337 11.6571L10.3317 10.7064L12.8315 13.0792L9.21847 14.2942V14.293Z" fill="#8A8A8A"/>
<path d="M3.45349 7.27519L5.9533 9.64915L8.63044 8.69842C11.2344 7.99253 14.0179 8.87232 14.6494 11.1994C15.2844 13.5241 12.4677 15 12.4677 15C15.2135 13.8742 17.354 10.9809 15.2844 7.92274C14.7913 7.19739 12.2446 4.29487 7.16373 5.99726L3.45349 7.27519Z" fill="#8A8A8A"/>
<path d="M10.4712 2.32591C10.4712 3.60728 9.42893 4.64953 8.14756 4.64953C6.8662 4.64953 5.82166 3.60728 5.82166 2.32591C5.82166 1.04454 6.86391 0 8.14756 0C9.43122 0 10.4712 1.04225 10.4712 2.32591Z" fill="#8A8A8A"/>
</svg>
