<svg width="100" height="111" viewBox="0 0 100 111" fill="none" xmlns="http://www.w3.org/2000/svg">
<g clip-path="url(#clip0_8_4234)">
<path d="M86.1092 32.0366C87.1585 32.0784 87.691 30.7889 86.9184 30.0789L58.2831 3.78505C53.5453 -0.56637 46.2677 -0.56637 41.53 3.78505L12.8973 30.0789C12.122 30.7889 12.6545 32.0784 13.7065 32.0366C25.5443 31.5694 37.6275 31.3266 49.9091 31.3266C62.1907 31.3266 74.2739 31.5694 86.1118 32.0366H86.1092Z" fill="#EB635D" stroke="#232E5E" stroke-width="1.04413" stroke-linecap="round" stroke-linejoin="round"/>
<path d="M78.4011 31.6738C79.3591 31.7104 79.842 30.5383 79.1372 29.891L56.5814 9.17801C52.8068 5.7115 47.0067 5.7115 43.2322 9.17801L20.6763 29.891C19.9715 30.5383 20.457 31.713 21.4124 31.6738C30.7313 31.311 40.2433 31.123 49.9068 31.123C59.5702 31.123 69.0822 31.311 78.4011 31.6738Z" fill="white" stroke="#232E5E" stroke-width="1.04413" stroke-linecap="round" stroke-linejoin="round"/>
<path d="M56.7513 15.0538H43.0628C41.8071 15.0538 40.7892 16.0718 40.7892 17.3274V25.3672C40.7892 26.6229 41.8071 27.6408 43.0628 27.6408H56.7513C58.007 27.6408 59.0249 26.6229 59.0249 25.3672V17.3274C59.0249 16.0718 58.007 15.0538 56.7513 15.0538Z" fill="#EBEBEA" stroke="#232E5E" stroke-width="1.04413" stroke-linecap="round" stroke-linejoin="round"/>
<path d="M45.4902 17.0951H43.5403C43.1726 17.0951 42.8746 17.3931 42.8746 17.7607V19.1207C42.8746 19.4883 43.1726 19.7863 43.5403 19.7863H45.4902C45.8578 19.7863 46.1558 19.4883 46.1558 19.1207V17.7607C46.1558 17.3931 45.8578 17.0951 45.4902 17.0951Z" fill="white" stroke="#232E5E" stroke-width="1.04413" stroke-linecap="round" stroke-linejoin="round"/>
<path d="M50.8831 17.0951H48.9332C48.5656 17.0951 48.2676 17.3931 48.2676 17.7607V19.1207C48.2676 19.4883 48.5656 19.7863 48.9332 19.7863H50.8831C51.2507 19.7863 51.5488 19.4883 51.5488 19.1207V17.7607C51.5488 17.3931 51.2507 17.0951 50.8831 17.0951Z" fill="white" stroke="#232E5E" stroke-width="1.04413" stroke-linecap="round" stroke-linejoin="round"/>
<path d="M56.2761 17.0951H54.3262C53.9585 17.0951 53.6605 17.3931 53.6605 17.7607V19.1207C53.6605 19.4883 53.9585 19.7863 54.3262 19.7863H56.2761C56.6437 19.7863 56.9417 19.4883 56.9417 19.1207V17.7607C56.9417 17.3931 56.6437 17.0951 56.2761 17.0951Z" fill="white" stroke="#232E5E" stroke-width="1.04413" stroke-linecap="round" stroke-linejoin="round"/>
<path d="M43.412 21.7024H48.3664C48.6953 21.7024 48.9641 21.9686 48.9641 22.3002V25.1167C48.9641 25.4456 48.6979 25.7145 48.3664 25.7145H43.412C43.0831 25.7145 42.8142 25.4482 42.8142 25.1167V22.3002C42.8142 21.9713 43.0805 21.7024 43.412 21.7024Z" fill="white" stroke="#232E5E" stroke-width="1.04413" stroke-linecap="round" stroke-linejoin="round"/>
<path d="M51.4501 21.7024H56.4045C56.7334 21.7024 57.0022 21.9686 57.0022 22.3002V25.1167C57.0022 25.4456 56.736 25.7145 56.4045 25.7145H51.4501C51.1212 25.7145 50.8523 25.4482 50.8523 25.1167V22.3002C50.8523 21.9713 51.1186 21.7024 51.4501 21.7024Z" fill="white" stroke="#232E5E" stroke-width="1.04413" stroke-linecap="round" stroke-linejoin="round"/>
</g>
<path d="M24.6133 105.158H20.166V106.875C20.166 107.331 20.1815 107.784 20.1213 108.108C19.989 108.709 19.3581 108.929 18.184 108.812V105.158H14.2507C13.9138 105.158 13.7522 104.996 13.7522 104.673V103.573H24.1147C24.4517 103.573 24.6133 103.734 24.6133 104.057V105.158ZM15.5572 101.032C15.3372 100.166 15.3956 98.5221 15.6896 97.3187H22.4558C22.779 97.3187 22.9544 97.4803 22.9544 97.8035V101.988C21.5894 102.619 19.7982 102.78 18.3885 102.677C16.7451 102.56 15.8048 102.031 15.5555 101.034L15.5572 101.032ZM17.2591 98.8298C17.113 100.547 17.3915 100.973 18.5364 101.12C19.3736 101.223 20.3706 101.178 21.2078 100.958V98.8298H17.2591Z" fill="#318451" stroke="#318451" stroke-width="0.0859534" stroke-miterlimit="10" stroke-linecap="round"/>
<path d="M31.8351 105.233C30.8071 105.395 29.5745 105.44 28.4296 105.366C26.9323 105.278 26.1983 104.822 26.0075 103.853C25.8906 103.206 25.949 102.194 26.0814 101.446H29.296V100.537H26.4475C26.1106 100.537 25.949 100.375 25.949 100.052V99.1134H30.6025C30.8965 99.1134 31.0581 99.275 31.0581 99.5982V102.813H27.6818C27.6681 103.019 27.6681 103.224 27.6973 103.37C27.7558 103.664 27.9758 103.781 28.6961 103.839C29.6794 103.913 30.5011 103.868 31.2798 103.825C31.6323 103.796 31.8368 103.971 31.8368 104.295V105.233H31.8351ZM35.1082 107.509C35.1082 107.994 35.1529 109.462 35.0498 110.078C34.9466 110.695 34.3604 110.929 33.2877 110.796V107.728H28.0618C27.7248 107.728 27.5632 107.566 27.5632 107.243V106.112H34.6097C34.9466 106.112 35.1082 106.273 35.1082 106.596V107.506V107.509ZM33.2585 103.031C31.9675 103.119 31.6288 102.943 31.4672 102.634C31.3349 102.369 31.3503 101.797 31.5119 101.372H33.2585V98.5547H34.6097C34.9466 98.5547 35.1082 98.7163 35.1082 99.0395V103.37C35.1082 104.03 35.1374 104.485 35.0498 104.883C34.9174 105.5 34.3896 105.72 33.2585 105.601V103.033V103.031Z" fill="#318451" stroke="#318451" stroke-width="0.0859534" stroke-miterlimit="10" stroke-linecap="round"/>
<path d="M47.806 105.158H43.3588V106.875C43.3588 107.331 43.3743 107.784 43.3141 108.108C43.1817 108.709 42.5508 108.929 41.3767 108.812V105.158H37.4435C37.1065 105.158 36.9449 104.996 36.9449 104.673V103.573H47.3075C47.6444 103.573 47.806 103.734 47.806 104.057V105.158ZM38.7482 101.032C38.5282 100.166 38.5867 98.5221 38.8806 97.3187H45.6469C45.9701 97.3187 46.1454 97.4803 46.1454 97.8035V101.988C44.7805 102.619 42.9892 102.78 41.5796 102.677C39.9361 102.56 38.9958 102.031 38.7465 101.034L38.7482 101.032ZM40.4518 98.8298C40.3057 100.547 40.5842 100.973 41.7291 101.12C42.5663 101.223 43.5634 101.178 44.4005 100.958V98.8298H40.4518Z" fill="#318451" stroke="#318451" stroke-width="0.0859534" stroke-miterlimit="10" stroke-linecap="round"/>
<path d="M55.0257 101.733C53.9977 101.895 52.7651 101.94 51.6202 101.866C50.1229 101.778 49.3888 101.322 49.198 100.353C49.0811 99.7065 49.1396 98.694 49.2719 97.9462H52.4866V97.0368H49.6381C49.3012 97.0368 49.1396 96.8752 49.1396 96.552V95.6134H53.7931C54.087 95.6134 54.2486 95.775 54.2486 96.0982V99.3128H50.8724C50.8569 99.5191 50.8569 99.7237 50.8861 99.8698C50.9446 100.164 51.1646 100.281 51.8849 100.339C52.8682 100.413 53.6899 100.368 54.4687 100.325C54.8211 100.296 55.0257 100.471 55.0257 100.795V101.733ZM58.3005 104.009C58.3005 104.494 58.3452 105.962 58.242 106.578C58.1389 107.195 57.5527 107.429 56.48 107.296V104.228H51.254C50.9171 104.228 50.7555 104.066 50.7555 103.743V102.612H57.802C58.1389 102.612 58.3005 102.773 58.3005 103.096V104.006V104.009ZM56.4508 99.5311C55.1597 99.6188 54.8211 99.4435 54.6595 99.134C54.5271 98.8693 54.5426 98.2969 54.7042 97.8722H56.4508V95.0547H57.802C58.1389 95.0547 58.3005 95.2163 58.3005 95.5395V99.8698C58.3005 100.53 58.3297 100.985 58.242 101.383C58.1097 102 57.5819 102.22 56.4508 102.101V99.5329V99.5311Z" fill="#318451" stroke="#318451" stroke-width="0.0859534" stroke-miterlimit="10" stroke-linecap="round"/>
<path d="M69.9987 102.617C68.9414 102.895 67.2825 102.983 66.2562 102.852C64.9343 102.662 64.202 102.148 63.9957 101.12C63.8049 100.269 63.8495 98.4326 64.0249 97.3617H65.3022C65.6099 97.3617 65.7577 97.5233 65.7285 97.8602C65.6838 98.4172 65.6546 99.6222 65.713 100.165C65.7869 100.767 66.1084 101.061 66.7255 101.193C67.4888 101.326 68.6045 101.238 69.3385 101.135C69.7494 101.077 69.9987 101.238 69.9987 101.575V102.617ZM71.8329 103.997C72.1406 103.997 72.3022 104.143 72.3022 104.453V108.02C71.465 108.799 69.7924 109.223 68.0458 109.12C66.4024 109.017 65.3881 108.415 65.0804 107.315C64.8157 106.39 64.9773 104.951 65.2265 103.997H71.8312H71.8329ZM70.4972 105.553H66.7393C66.6069 106.669 66.8717 107.167 67.6934 107.374C68.5735 107.594 69.8216 107.477 70.4972 107.124V105.553ZM72.4191 100.812C73.5932 100.636 73.9903 100.783 74.1364 101.164C74.2826 101.53 74.2396 102.089 73.9594 102.471H72.4036L72.3589 102.691C72.2266 103.308 71.7126 103.528 70.5969 103.409V96.8047H71.9189C72.2558 96.8047 72.4174 96.9663 72.4174 97.2895V98.008C73.5915 97.8327 73.9886 97.9788 74.1347 98.3604C74.2808 98.7266 74.2379 99.2853 73.9577 99.6669H72.4157V100.812H72.4191Z" fill="#318451" stroke="#318451" stroke-width="0.0859534" stroke-miterlimit="10" stroke-linecap="round"/>
<path d="M81.5936 104.369C80.5364 104.647 78.8775 104.735 77.8512 104.604C76.5292 104.413 75.7952 103.899 75.5906 102.871C75.3998 102.02 75.4445 100.184 75.6199 99.1134H76.8971C77.2048 99.1134 77.3527 99.275 77.3235 99.6119C77.2788 100.171 77.2495 101.374 77.308 101.917C77.3819 102.519 77.7034 102.813 78.3205 102.945C79.0838 103.078 80.1995 102.99 80.9335 102.887C81.3444 102.828 81.5936 102.99 81.5936 103.327V104.369ZM83.4279 105.747C83.7356 105.747 83.8972 105.893 83.8972 106.203V109.77C83.06 110.549 81.3873 110.973 79.6408 110.87C77.9973 110.767 76.9831 110.165 76.6754 109.065C76.4106 108.14 76.5722 106.701 76.8215 105.747H83.4262H83.4279ZM82.0922 107.303H78.3343C78.2019 108.419 78.4666 108.917 79.2884 109.124C80.1685 109.344 81.4166 109.227 82.0922 108.874V107.303ZM84.0158 102.562C85.1899 102.386 85.587 102.533 85.7331 102.914C85.8793 103.28 85.8363 103.839 85.5561 104.221H84.0003L83.9556 104.441C83.8233 105.058 83.3093 105.278 82.1936 105.159V98.5547H83.5155C83.8525 98.5547 84.0141 98.7163 84.0141 99.0395V99.758C85.1882 99.5827 85.5853 99.7288 85.7314 100.11C85.8775 100.477 85.8346 101.035 85.5544 101.417H84.0141V102.562H84.0158Z" fill="#318451" stroke="#318451" stroke-width="0.0859534" stroke-miterlimit="10" stroke-linecap="round"/>
<path d="M8.8418 106.629C8.8418 106.629 5.24036 103.492 9.13576 99.8595C9.13576 99.8595 12.2009 102.99 8.8418 106.629Z" fill="#B8D670"/>
<path d="M8.82261 106.641C8.82261 106.641 6.11336 102.708 2.06323 106.167C2.06323 106.167 4.82749 109.567 8.82261 106.641Z" fill="#B8D670"/>
<path d="M90.9546 106.629C90.9546 106.629 94.556 103.492 90.6606 99.8595C90.6606 99.8595 87.5955 102.99 90.9546 106.629Z" fill="#B8D670"/>
<path d="M90.9736 106.641C90.9736 106.641 93.6829 102.708 97.733 106.167C97.733 106.167 94.9687 109.567 90.9736 106.641Z" fill="#B8D670"/>
<path d="M1.99934 54.7994C7.97139 53.8539 13.9658 53.0889 19.9722 52.5061C20.065 53.4585 20.1579 54.4109 20.249 55.3632C19.0611 55.4784 17.8715 55.6005 16.6853 55.7311C16.8177 56.9396 16.9501 58.1464 17.0807 59.3549C15.8825 59.4856 14.6844 59.6248 13.4879 59.7692C13.3418 58.5624 13.1939 57.3573 13.0478 56.1506C11.8995 56.2898 10.7528 56.4359 9.60622 56.5889C9.76781 57.794 9.92769 58.9973 10.0893 60.2024C8.89281 60.3623 7.69806 60.529 6.5033 60.7044C6.32796 59.5027 6.15261 58.2994 5.97555 57.0978C4.79799 57.2697 3.62214 57.4485 2.4463 57.6341C2.29674 56.6886 2.14718 55.7431 1.99763 54.7977L1.99934 54.7994ZM11.4938 42.2072C14.7978 41.8032 18.0348 42.1384 18.4388 46.2728C18.8428 50.4072 15.8464 51.3578 12.6507 51.748C11.4198 51.8976 10.1907 52.054 8.96329 52.2191C5.77098 52.6437 2.62509 52.4752 1.97872 48.3718C1.33235 44.2684 4.38713 43.1303 7.68946 42.692C8.95813 42.5218 10.2251 42.3602 11.4955 42.2072H11.4938ZM12.5132 48.7912C14.3165 48.5746 14.8288 47.9489 14.6861 46.6733C14.5434 45.3995 13.897 44.8941 12.0696 45.1124C10.6652 45.2809 9.26241 45.4614 7.85965 45.6488C6.03572 45.8963 5.53547 46.5478 5.71769 47.8165C5.89991 49.0869 6.55316 49.5665 8.35302 49.3224C9.73859 49.1368 11.1259 48.9597 12.5132 48.7912Z" fill="#EE7425"/>
<path d="M19.8055 42.8054C21.1997 42.673 22.5939 42.551 23.9898 42.4375C23.9296 41.7 23.8711 40.9626 23.811 40.2251C25.0865 40.1219 26.3638 40.0257 27.6411 39.938C27.6909 40.6755 27.7425 41.4147 27.7923 42.1521C29.1951 42.0559 30.5979 41.9699 32.0023 41.8926C32.0556 42.8484 32.1072 43.8042 32.1605 44.76C31.5657 44.7926 30.9709 44.827 30.3761 44.8631C31.2477 45.6264 31.674 46.8057 31.7703 48.4938C31.937 51.4351 32.1055 54.3764 32.2722 57.3178C31.0672 57.3865 29.8621 57.4622 28.657 57.5464C28.4112 53.9982 28.1654 50.4501 27.9195 46.9019C27.8422 45.7656 27.3952 45.121 26.1867 45.1485C26.1266 45.1536 26.0664 45.1571 26.0062 45.1622C24.8287 45.3118 24.502 46.0149 24.5931 47.1512C24.8768 50.6959 25.1622 54.2424 25.4458 57.7871C24.2425 57.8833 23.0374 57.9882 21.834 58.0982C21.5624 55.1655 21.2908 52.231 21.0192 49.2983C20.8628 47.6153 21.1103 46.3845 21.8581 45.5009C21.2633 45.5542 20.6702 45.6075 20.0772 45.6642C19.9878 44.7118 19.8967 43.7578 19.8073 42.8054H19.8055ZM34.2285 40.495C35.5024 40.4348 36.7779 40.3815 38.0517 40.3368C38.2477 45.8997 38.4437 51.4609 38.6397 57.0238C37.4329 57.0668 36.2261 57.1166 35.021 57.1734C34.7563 51.6139 34.4933 46.0544 34.2285 40.495Z" fill="#EE7425"/>
<path d="M40.0297 47.954C44.5543 47.8199 49.0806 47.7872 53.6069 47.856C53.5931 48.7448 53.5794 49.6335 53.5673 50.524C52.1439 50.5016 50.7205 50.4913 49.2972 50.4896C49.2972 51.4678 49.2954 52.4442 49.2937 53.4223C48.0732 53.4223 46.8509 53.4275 45.6304 53.4413C45.6201 52.4631 45.608 51.4867 45.5977 50.5085C43.7686 50.5292 41.9378 50.567 40.1087 50.6203C40.083 49.7315 40.0554 48.8427 40.0297 47.954ZM45.3175 46.969C42.9297 46.9965 40.7104 46.5701 40.6245 43.5583C40.5368 40.5465 42.787 39.993 45.2333 39.9655C46.1495 39.9552 47.0658 39.9466 47.9821 39.9449C50.4283 39.9345 52.6854 40.4537 52.6459 43.4672C52.6046 46.4807 50.3939 46.9397 48.0061 46.9501C47.1105 46.9535 46.2149 46.9604 45.3192 46.9707L45.3175 46.969ZM45.3227 53.8315C45.3313 54.5449 45.4499 54.7254 46.1685 54.7185C50.0484 54.6807 53.93 54.7202 57.8083 54.8354C57.7808 55.7912 57.7515 56.7487 57.724 57.7045C53.4023 57.5756 49.0788 57.543 44.7554 57.6066C42.9899 57.6323 41.747 57.1166 41.6886 54.856C41.6645 53.8659 41.6404 52.874 41.6146 51.8838C42.8421 51.8528 44.0695 51.8305 45.2969 51.815C45.3055 52.4872 45.3141 53.1593 45.3227 53.8315ZM48.0766 44.1772C48.6181 44.1772 48.8605 43.9933 48.8588 43.4432C48.8588 42.8931 48.6164 42.7091 48.0715 42.7108C47.1088 42.7143 46.1478 42.7211 45.1851 42.7332C44.6402 42.7401 44.4013 42.9274 44.4081 43.4775C44.4167 44.0276 44.6608 44.2064 45.2023 44.1995C46.1599 44.1875 47.1174 44.1806 48.0749 44.1772H48.0766ZM50.1206 51.1635C51.4099 51.1686 52.6992 51.1807 53.9885 51.203C54.0487 47.5311 54.1106 43.8592 54.1707 40.189C55.4463 40.2096 56.7218 40.2388 57.9956 40.2766C57.8633 44.8906 57.7292 49.5046 57.5968 54.1168C56.378 54.0825 55.1609 54.0532 53.9421 54.0343C53.9421 53.9467 53.9455 53.8573 53.9472 53.7696C52.67 53.749 51.391 53.7352 50.112 53.7301C50.1154 52.874 50.1189 52.0196 50.1223 51.1635H50.1206Z" fill="#EE7425"/>
<path d="M59.7427 46.7885C64.2381 46.9467 68.7317 47.2045 73.2185 47.5621C73.289 46.6682 73.3612 45.776 73.4317 44.8821C73.4884 44.1721 73.3818 43.9796 72.6375 43.9211C68.828 43.6289 65.0151 43.4071 61.1988 43.2558C61.2366 42.3 61.2744 41.3425 61.3122 40.3867C65.6718 40.5586 70.0279 40.8234 74.3806 41.1792C76.2492 41.3322 77.499 42.0026 77.2893 44.2529C77.1775 45.4631 77.0675 46.6734 76.9558 47.8819C77.3271 47.9162 77.6967 47.9506 78.068 47.9867C77.9838 48.872 77.8978 49.7574 77.8136 50.6427C71.7693 50.0651 65.7113 49.668 59.6499 49.4548C59.6808 48.566 59.7118 47.6773 59.7445 46.7885H59.7427ZM64.3533 51.8787C67.188 52.0231 70.021 52.2088 72.8506 52.4339C72.8799 52.0747 72.9074 51.7171 72.9366 51.3578C74.1674 51.4558 75.3966 51.5607 76.6257 51.6741C76.5019 53.0184 76.3782 54.3645 76.2544 55.7088C75.9226 59.2122 71.7796 58.6295 68.192 58.4026C64.606 58.1602 60.4235 58.198 60.5524 54.6808C60.6057 53.3313 60.6573 51.9818 60.7106 50.6324C61.9431 50.6805 63.1757 50.7355 64.4083 50.7991C64.3894 51.1584 64.3722 51.5177 64.3533 51.877V51.8787ZM72.6461 54.9919C69.8405 54.7684 67.0316 54.5845 64.2209 54.4401C64.2209 54.4539 64.2209 54.4676 64.2192 54.4814C64.1676 55.5214 65.634 55.6675 68.3587 55.8446C71.0851 56.0251 72.5584 56.0698 72.6426 55.0332C72.6426 55.0194 72.6443 55.0057 72.6461 54.9919Z" fill="#EE7425"/>
<path d="M86.8161 46.8589C86.9571 45.7277 86.5256 45.0968 85.2415 44.9456C83.9762 44.796 83.4107 45.3083 83.2835 46.4412C83.0995 48.0743 82.9173 49.7057 82.7334 51.3388C81.5025 51.2013 80.2699 51.0706 79.0374 50.9468C79.1852 49.4616 79.3348 47.9746 79.4826 46.4893C79.8281 42.9686 81.5197 41.6209 85.5784 42.0936C89.656 42.5818 90.99 44.2872 90.5053 47.7906C90.3024 49.2707 90.1013 50.7491 89.8984 52.2293C88.6693 52.0608 87.4402 51.9009 86.2093 51.7479C86.4122 50.1182 86.6133 48.4868 86.8161 46.8572V46.8589ZM91.8685 57.6478C91.9716 56.9429 91.8822 56.7435 91.1671 56.6421C87.6379 56.1384 84.1017 55.6966 80.5587 55.3201C80.6602 54.3678 80.7616 53.4171 80.863 52.4648C84.9286 52.898 88.9856 53.4137 93.0357 54.0119C94.8304 54.2784 95.9925 55.021 95.6367 57.2524C95.4287 58.5657 95.2207 59.8808 95.0127 61.1942C93.8196 61.0051 92.6266 60.8229 91.4318 60.6493C91.578 59.6488 91.7241 58.6483 91.8702 57.646L91.8685 57.6478ZM93.9451 43.4018C95.2104 43.5858 96.4756 43.7783 97.7391 43.9795C97.2217 47.244 96.7042 50.5085 96.1885 53.7747C94.9645 53.5804 93.7406 53.3948 92.5166 53.216C92.9928 49.9446 93.4706 46.6732 93.9468 43.4036L93.9451 43.4018Z" fill="#EE7425"/>
<path d="M9.53051 70.7712C9.53051 69.2791 8.87727 68.533 7.23212 68.533C5.58697 68.533 4.90794 69.2791 4.90794 70.7712V86.8909H0V71.3574C0 66.7211 1.9838 64.7769 7.23212 64.7769C12.4804 64.7769 14.4385 66.7211 14.4385 71.3574V86.8909H9.53051V70.7712ZM16.2933 65.0416H21.2013V72.8479H24.5173V76.604H21.2013V86.8875H16.2933V65.0399V65.0416Z" fill="#232E5E"/>
<path d="M32.5081 70.3449C32.5081 68.9869 32.1695 68.533 31.334 68.533C30.4985 68.533 30.1599 68.9851 30.1599 70.3449V77.2195H25.5906V70.8245C25.5906 66.1091 27.2873 64.7769 31.3357 64.7769C35.3841 64.7769 37.0808 66.1091 37.0808 70.8245V77.2195H32.5115V70.3449H32.5081ZM34.0742 88.1149C30.9403 88.1149 28.042 87.209 28.042 83.666C28.042 80.123 30.9403 79.217 34.0742 79.217H42.6386C45.7724 79.217 48.6708 80.123 48.6708 83.666C48.6708 87.209 45.7724 88.1149 42.6386 88.1149H34.0742ZM42.7434 84.3588C43.4483 84.3588 43.7611 84.1989 43.7611 83.666C43.7611 83.1331 43.4483 82.9732 42.7434 82.9732H33.971C33.2662 82.9732 32.9533 83.1331 32.9533 83.666C32.9533 84.1989 33.2662 84.3588 33.971 84.3588H42.7434ZM38.279 65.0416H42.9274V69.6779H43.8935V65.0416H48.5419V78.0171H43.8935V73.4341H42.9274V78.0171H38.279V65.0416Z" fill="#232E5E"/>
<path d="M62.6648 78.9231V80.8416C62.6648 85.557 60.9681 86.8893 56.9197 86.8893C52.8713 86.8893 51.1746 85.557 51.1746 80.8416V65.0416H62.4018V68.7978H55.8212V81.3195C55.8212 82.6775 56.0825 83.1314 56.918 83.1314C57.7534 83.1314 58.0147 82.6793 58.0147 81.3195V78.9214H62.6631L62.6648 78.9231ZM63.8664 65.0416H68.5148V73.4083H69.4809V65.0416H74.1293V86.8893H69.4809V77.1645H68.5148V86.8893H63.8664V65.0416Z" fill="#232E5E"/>
<path d="M76.3733 83.1331H82.7442V81.5086C78.462 80.79 77.5491 78.0979 77.5491 76.9255V75.7273C77.5491 74.316 78.8539 70.9586 85.2248 70.9586C91.5956 70.9586 92.9004 74.316 92.9004 75.7273V76.9255C92.9004 78.177 91.9343 80.7883 87.6521 81.5086V83.1331H94.2327V86.8892H76.3733V83.1331ZM77.0265 66.3739H82.8232V63.8159H87.7312V66.3739H93.5537V70.1301H77.0265V66.3739ZM87.9925 76.525V76.1262C87.9925 75.1944 87.0006 74.7148 85.2248 74.7148C83.449 74.7148 82.4571 75.1944 82.4571 76.1262V76.525C82.4571 77.4567 83.449 77.9363 85.2248 77.9363C87.0006 77.9363 87.9925 77.4567 87.9925 76.525ZM94.8069 65.0416H99.7148V86.8892H94.8069V65.0416Z" fill="#232E5E"/>
<defs>
<clipPath id="clip0_8_4234">
<rect width="75.7987" height="32.5586" fill="white" transform="translate(12.0078)"/>
</clipPath>
</defs>
</svg>
