<svg width="113" height="24" viewBox="0 0 113 24" fill="none" xmlns="http://www.w3.org/2000/svg">
<path d="M32.2738 16.5517H31.6492V16.5088H32.2738V16.5517ZM31.0247 16.5517H30.4001V16.5088H31.0247V16.5517ZM29.7694 16.5517H29.1449V16.5088H29.7694V16.5517ZM28.5142 16.5517H27.8896V16.5088H28.5142V16.5517Z" fill="#928F8C"/>
<path d="M26.0096 8.84589C25.8443 8.84589 25.7218 8.79072 25.6422 8.67424C25.5626 8.55777 25.5259 8.4229 25.5259 8.26351C25.5259 8.10413 25.5626 7.96926 25.6422 7.85279C25.7218 7.73631 25.8443 7.68114 26.0096 7.68114H27.8159V7.1478C27.8159 6.94551 27.8894 6.79838 28.0302 6.70643C28.171 6.61447 28.3302 6.56543 28.5139 6.56543C28.6976 6.56543 28.8568 6.61447 28.9915 6.70643C29.1324 6.79838 29.1997 6.94551 29.1997 7.1478V7.68114H30.8958C31.0611 7.68114 31.1836 7.73631 31.2632 7.85279C31.3428 7.96926 31.3857 8.10413 31.3857 8.26351C31.3857 8.4229 31.3489 8.55777 31.2632 8.67424C31.1836 8.79072 31.0611 8.84589 30.8958 8.84589H26.0096ZM28.5078 9.29953C29.2487 9.29953 29.8304 9.46505 30.2529 9.78995C30.6754 10.121 30.8836 10.5685 30.8836 11.1386C30.8836 11.7087 30.6754 12.1562 30.2529 12.4873C29.8304 12.8183 29.2487 12.9777 28.5078 12.9777C27.7669 12.9777 27.1791 12.8122 26.7628 12.4873C26.3403 12.1562 26.1321 11.7087 26.1321 11.1386C26.1321 10.5685 26.3464 10.121 26.7628 9.78995C27.1852 9.46505 27.7669 9.29953 28.5078 9.29953ZM27.9139 16.5394C27.571 16.5394 27.3322 16.4719 27.1975 16.3432C27.0628 16.2145 26.9954 15.9815 26.9954 15.6382V14.0014C26.9954 13.7991 27.0628 13.652 27.2036 13.5601C27.3444 13.4681 27.5098 13.4191 27.6935 13.4191C27.8771 13.4191 28.0363 13.4681 28.1772 13.5601C28.318 13.652 28.3854 13.8053 28.3854 14.0014V15.1049C28.3854 15.2704 28.465 15.3562 28.6364 15.3562H33.143C33.3083 15.3562 33.4308 15.4175 33.5104 15.534C33.59 15.6505 33.6267 15.7915 33.6267 15.957C33.6267 16.1225 33.5838 16.2513 33.5104 16.3677C33.4308 16.4842 33.3083 16.5394 33.143 16.5394H27.9078H27.9139ZM28.5078 11.9172C28.8997 11.9172 29.1814 11.8436 29.3651 11.6965C29.5487 11.5493 29.6406 11.3654 29.6406 11.1386C29.6406 10.9118 29.5487 10.7279 29.3651 10.5808C29.1814 10.4336 28.8936 10.3601 28.5078 10.3601C28.1221 10.3601 27.8343 10.4336 27.6506 10.5808C27.4669 10.7279 27.3751 10.9179 27.3751 11.1386C27.3751 11.3593 27.4669 11.5493 27.6506 11.6965C27.8343 11.8436 28.1221 11.9172 28.5078 11.9172ZM33.394 9.40374H34.4227C34.588 9.40374 34.7105 9.45892 34.7901 9.57539C34.8697 9.69187 34.9126 9.83286 34.9126 9.99838C34.9126 10.1639 34.8697 10.3049 34.7901 10.4214C34.7105 10.5378 34.588 10.593 34.4227 10.593H33.394V13.4804C33.394 13.6827 33.3267 13.8298 33.1797 13.9218C33.0389 14.0137 32.8858 14.0627 32.7082 14.0627C32.5246 14.0627 32.3653 14.0137 32.2245 13.9218C32.0837 13.8298 32.0163 13.6765 32.0163 13.4804V7.16007C32.0163 6.95777 32.0898 6.81064 32.2245 6.71869C32.3653 6.62673 32.5246 6.57769 32.7082 6.57769C32.8919 6.57769 33.0389 6.62673 33.1797 6.71869C33.3205 6.81064 33.394 6.95777 33.394 7.16007V9.39761V9.40374Z" fill="#615956"/>
<path d="M39.3088 13.7686V11.6905H35.9044C35.7391 11.6905 35.6166 11.6353 35.537 11.5127C35.4574 11.3962 35.4146 11.2613 35.4146 11.1142C35.4146 10.9548 35.4574 10.82 35.537 10.7035C35.6166 10.587 35.7391 10.5318 35.9044 10.5318H44.0787C44.244 10.5318 44.3665 10.5931 44.4461 10.7035C44.5257 10.82 44.5685 10.9548 44.5685 11.1142C44.5685 11.2675 44.5257 11.4023 44.4461 11.5127C44.3665 11.6292 44.244 11.6905 44.0787 11.6905H40.6743V13.7686H39.3149H39.3088ZM36.9392 14.302C36.7739 14.302 36.6514 14.2468 36.5718 14.1303C36.4922 14.0138 36.4555 13.879 36.4555 13.7196C36.4555 13.5663 36.4922 13.4315 36.5718 13.3211C36.6514 13.2046 36.7739 13.1495 36.9392 13.1495H42.4744C42.8173 13.1495 43.0561 13.2169 43.1908 13.3456C43.3255 13.4744 43.3929 13.7073 43.3929 14.0506V16.2023C43.3929 16.4046 43.3194 16.5518 43.1786 16.6437C43.0378 16.7357 42.8786 16.7847 42.701 16.7847C42.5234 16.7847 42.3581 16.7357 42.2173 16.6437C42.0764 16.5518 42.0091 16.4046 42.0091 16.2023V14.5533C42.0091 14.3878 41.9295 14.3081 41.758 14.3081H36.9331L36.9392 14.302ZM36.9821 8.17169C36.8167 8.17169 36.6943 8.11039 36.6147 8.00005C36.5351 7.8897 36.4983 7.74257 36.4983 7.57706C36.4983 7.41154 36.5351 7.27054 36.6147 7.15407C36.6943 7.03759 36.8167 6.98242 36.9821 6.98242H42.3642C42.7071 6.98242 42.952 7.04985 43.0806 7.17859C43.2153 7.30733 43.2827 7.54028 43.2827 7.88357V8.6192C43.2827 8.86441 43.2704 9.11575 43.2398 9.37323C43.2092 9.6307 43.1725 9.87591 43.1296 10.1089C43.0867 10.3418 43.0378 10.5625 42.9765 10.7587C42.9214 10.9548 42.8663 11.1204 42.8173 11.2491L41.5927 10.9855C41.8009 10.2131 41.905 9.45292 41.905 8.70503V8.42303C41.905 8.25752 41.8193 8.17782 41.6539 8.17782H36.9698L36.9821 8.17169Z" fill="#615956"/>
<path d="M49.5286 13.9951V11.1507C49.5286 10.9607 49.5959 10.8258 49.7306 10.7338C49.8653 10.6419 50.0184 10.599 50.1837 10.599C50.349 10.599 50.5021 10.6419 50.6368 10.7338C50.7715 10.8258 50.845 10.9607 50.845 11.1507V13.9951H53.9127C54.078 13.9951 54.2005 14.0503 54.2801 14.1668C54.3597 14.2833 54.4025 14.4181 54.4025 14.5653C54.4025 14.7124 54.3597 14.8595 54.2801 14.976C54.2005 15.0925 54.078 15.1476 53.9127 15.1476H45.7384C45.5731 15.1476 45.4506 15.0925 45.371 14.976C45.2914 14.8595 45.2485 14.7246 45.2485 14.5653C45.2485 14.4059 45.2853 14.2771 45.371 14.1668C45.4506 14.0503 45.5731 13.9951 45.7384 13.9951H47.2324V11.1507C47.2324 10.9607 47.2997 10.8258 47.4345 10.7338C47.5753 10.6419 47.7223 10.599 47.8876 10.599C48.0529 10.599 48.206 10.6419 48.3407 10.7338C48.4754 10.8258 48.5427 10.9607 48.5427 11.1507V13.9951H49.5163H49.5286ZM46.7793 8.46564C46.614 8.46564 46.4915 8.41047 46.4119 8.29399C46.3323 8.17752 46.2894 8.03652 46.2894 7.871C46.2894 7.70549 46.3323 7.56449 46.4119 7.44801C46.4915 7.33154 46.614 7.27637 46.7793 7.27637H52.4003C52.7432 7.27637 52.9881 7.3438 53.1228 7.47254C53.2514 7.60127 53.3187 7.84035 53.3187 8.17752V9.15223C53.3187 9.82043 53.2942 10.4089 53.2453 10.9177C53.2024 11.4327 53.1289 11.917 53.0248 12.3706C52.982 12.5668 52.8779 12.7017 52.7187 12.7691C52.5533 12.8427 52.3758 12.861 52.186 12.8243C52.0206 12.7875 51.8859 12.7139 51.7818 12.6097C51.6777 12.5055 51.641 12.3522 51.6778 12.1561C51.7696 11.7024 51.837 11.2304 51.8859 10.74C51.9288 10.2495 51.9472 9.71008 51.9472 9.12771V8.72311C51.9472 8.55759 51.8614 8.47177 51.6961 8.47177H46.7793V8.46564Z" fill="#615956"/>
<path d="M63.7647 11.2492C63.93 11.2492 64.0525 11.3044 64.126 11.4148C64.1995 11.5251 64.2362 11.6661 64.2362 11.8194C64.2362 11.9726 64.1995 12.1013 64.126 12.2117C64.0525 12.322 63.93 12.3772 63.7647 12.3772H61.6768V13.8607H60.3603V12.3772H58.9765V13.8607H57.66V12.3772H55.5721C55.4067 12.3772 55.2843 12.322 55.2108 12.2117C55.1373 12.1013 55.1006 11.9665 55.1006 11.8194C55.1006 11.6722 55.1373 11.5251 55.2108 11.4148C55.2843 11.3044 55.4067 11.2492 55.5721 11.2492H63.7647ZM61.689 14.7558C61.689 14.5902 61.6094 14.5044 61.438 14.5044H56.6069C56.4415 14.5044 56.3191 14.4492 56.2456 14.3389C56.166 14.2285 56.1293 14.0937 56.1293 13.9282C56.1293 13.7626 56.166 13.6339 56.2456 13.5236C56.3191 13.4132 56.4415 13.3581 56.6069 13.3581H62.1544C62.5034 13.3581 62.7422 13.4255 62.8769 13.5542C63.0116 13.683 63.0728 13.9159 63.0728 14.2592V16.2209C63.0728 16.4232 63.0055 16.5703 62.8646 16.6623C62.7238 16.7542 62.5646 16.8033 62.3809 16.8033C62.1972 16.8033 62.0441 16.7542 61.8972 16.6623C61.7564 16.5703 61.689 16.4232 61.689 16.2209V14.7619V14.7558ZM56.2823 8.73583C56.2823 8.40479 56.3619 8.11667 56.515 7.87146C56.6681 7.62625 56.8946 7.42395 57.1824 7.25843C57.4763 7.09292 57.8315 6.97644 58.2478 6.89675C58.6642 6.82319 59.1357 6.78027 59.6623 6.78027C60.1888 6.78027 60.6603 6.82319 61.0767 6.89675C61.4992 6.97644 61.8482 7.09292 62.1421 7.25843C62.436 7.41782 62.6565 7.62625 62.8157 7.87146C62.9687 8.11667 63.0483 8.40479 63.0483 8.73583C63.0483 9.06686 62.9687 9.36725 62.8157 9.60633C62.6626 9.85154 62.436 10.0477 62.1421 10.2132C61.8482 10.3726 61.4992 10.4952 61.0767 10.5688C60.6603 10.6423 60.1888 10.6853 59.6623 10.6853C59.1357 10.6853 58.6642 10.6423 58.2478 10.5688C57.8315 10.4891 57.4763 10.3726 57.1824 10.2132C56.8885 10.0477 56.6681 9.85154 56.515 9.60633C56.3619 9.36725 56.2823 9.07299 56.2823 8.73583ZM61.6768 8.73583C61.6768 8.47223 61.5237 8.26993 61.2114 8.1228C60.8991 7.97568 60.3848 7.90211 59.6684 7.90211C58.952 7.90211 58.4315 7.97568 58.1254 8.1228C57.8131 8.26993 57.66 8.47223 57.66 8.73583C57.66 8.99943 57.8131 9.20173 58.1254 9.34886C58.4315 9.49598 58.952 9.56954 59.6684 9.56954C60.3848 9.56954 60.9052 9.49598 61.2114 9.34886C61.5237 9.20173 61.6768 8.99943 61.6768 8.73583Z" fill="#615956"/>
<path d="M70.7511 13.4258C70.4021 13.4565 70.0225 13.481 69.6 13.4994C69.1836 13.5239 68.7427 13.5423 68.2896 13.5607C67.8304 13.5791 67.3589 13.5914 66.863 13.5975C66.3731 13.5975 65.8772 13.6097 65.3751 13.6097C65.2097 13.6097 65.0934 13.5546 65.0138 13.4442C64.9403 13.3339 64.8975 13.2052 64.8975 13.058C64.8975 12.9109 64.9342 12.7883 65.0138 12.6718C65.0934 12.5615 65.2097 12.5063 65.3751 12.5063H66.4099C66.7528 12.5063 67.0956 12.5063 67.4447 12.494V11.2619H68.7856V12.4634C69.104 12.4511 69.4163 12.4327 69.7224 12.4143C70.0347 12.396 70.3409 12.3714 70.6531 12.3469C70.8185 12.3347 70.9409 12.3714 71.0266 12.4634C71.1062 12.5553 71.1614 12.6779 71.1736 12.8312C71.1859 12.9783 71.1614 13.1071 71.1001 13.2235C71.0328 13.3461 70.9225 13.4136 70.7572 13.4258M65.6261 8.49711C65.4669 8.49711 65.3506 8.44193 65.2832 8.33772C65.2097 8.22737 65.173 8.10477 65.173 7.95764C65.173 7.80439 65.2097 7.67565 65.2832 7.56531C65.3567 7.45496 65.473 7.40592 65.6261 7.40592H67.4202V6.98293C67.4202 6.79289 67.4875 6.65803 67.6222 6.55994C67.763 6.46799 67.9223 6.41895 68.1121 6.41895C68.3019 6.41895 68.4549 6.46799 68.5958 6.55994C68.7366 6.6519 68.804 6.79289 68.804 6.98293V7.40592H70.4939C70.6531 7.40592 70.7695 7.46109 70.8368 7.56531C70.9103 7.66952 70.9471 7.80439 70.9471 7.95764C70.9471 8.09864 70.9103 8.22737 70.8368 8.33772C70.7633 8.44193 70.647 8.49711 70.4939 8.49711H65.6261ZM68.1121 8.86492C68.8407 8.86492 69.4102 8.99366 69.8265 9.245C70.2429 9.50247 70.4511 9.86416 70.4511 10.3362C70.4511 10.8082 70.2429 11.176 69.8265 11.4274C69.4102 11.6787 68.8407 11.8075 68.1121 11.8075C67.3834 11.8075 66.814 11.6848 66.3976 11.4274C65.9874 11.176 65.7792 10.8082 65.7792 10.3362C65.7792 9.86416 65.9874 9.49634 66.3976 9.245C66.814 8.99366 67.3834 8.86492 68.1121 8.86492ZM67.2242 16.5645C66.8752 16.5645 66.6364 16.5032 66.5078 16.3684C66.3731 16.2396 66.3058 16.0006 66.3058 15.6634V14.5293C66.3058 14.327 66.3792 14.1799 66.5201 14.0879C66.6609 13.996 66.8201 13.9469 66.9915 13.9469C67.163 13.9469 67.3161 13.9898 67.4569 14.0879C67.5977 14.1799 67.6712 14.327 67.6712 14.5293V15.1975C67.6712 15.363 67.7508 15.4488 67.9161 15.4488H72.7166C72.8758 15.4488 72.9922 15.504 73.0656 15.6143C73.1391 15.7247 73.1758 15.8596 73.1758 16.0067C73.1758 16.1538 73.1391 16.2764 73.0656 16.3929C72.9922 16.5032 72.8758 16.5584 72.7166 16.5584H67.2242V16.5645ZM68.1121 10.8143C68.8407 10.8143 69.202 10.655 69.202 10.3362C69.202 10.0174 68.8407 9.85803 68.1121 9.85803C67.3834 9.85803 67.0222 10.0174 67.0222 10.3362C67.0222 10.655 67.3834 10.8143 68.1121 10.8143ZM72.9309 9.73542H73.8065C73.9841 9.73542 74.1065 9.79059 74.1861 9.90707C74.2657 10.0235 74.3086 10.1645 74.3086 10.3301C74.3086 10.4956 74.2657 10.6366 74.1861 10.7592C74.1065 10.8756 73.9841 10.937 73.8065 10.937H72.9309V13.7201C72.9309 13.9163 72.8636 14.0573 72.7289 14.1553C72.588 14.2473 72.4349 14.2963 72.2513 14.2963C72.0676 14.2963 71.9084 14.2473 71.7737 14.1553C71.6389 14.0634 71.5716 13.9163 71.5716 13.7201V7.16071C71.5716 6.96454 71.6389 6.82354 71.7737 6.72546C71.9084 6.6335 72.0676 6.58446 72.2513 6.58446C72.4349 6.58446 72.588 6.6335 72.7289 6.72546C72.8636 6.81741 72.9309 6.96454 72.9309 7.16071V9.73542Z" fill="#615956"/>
<path d="M75.7108 8.31245C75.5455 8.31245 75.4231 8.25728 75.3435 8.1408C75.2639 8.02433 75.2271 7.88946 75.2271 7.73007C75.2271 7.57069 75.2639 7.42356 75.3435 7.30709C75.4231 7.19061 75.5455 7.13544 75.7108 7.13544H78.8336C79.1826 7.13544 79.4153 7.20287 79.55 7.33161C79.6847 7.46034 79.7459 7.69329 79.7459 8.03659V8.85804C79.7459 9.26264 79.7031 9.60594 79.6173 9.8818C79.5316 10.1638 79.3541 10.4213 79.0908 10.6665C78.8214 10.9117 78.4417 11.1692 77.9519 11.4328C77.462 11.7025 76.813 12.0274 76.0047 12.4075C75.8333 12.4872 75.668 12.4872 75.521 12.4075C75.3679 12.3278 75.2577 12.2174 75.1965 12.0703C75.1597 12.009 75.1353 11.9354 75.1291 11.8557C75.1169 11.7761 75.123 11.7025 75.1291 11.6228C75.1414 11.5492 75.172 11.4757 75.221 11.4144C75.27 11.3531 75.3373 11.2979 75.4353 11.255C76.1578 10.9239 76.715 10.6481 77.113 10.4335C77.5049 10.219 77.7988 10.0351 77.9886 9.86954C78.1784 9.71015 78.2886 9.55076 78.3254 9.39138C78.3621 9.23812 78.3805 9.04195 78.3805 8.81513V8.56379C78.3805 8.39827 78.2948 8.31245 78.1294 8.31245H75.7047H75.7108ZM76.6232 14.7124C76.6232 14.0136 76.9109 13.4864 77.4926 13.137C78.0682 12.7875 78.8703 12.6098 79.8868 12.6098C80.9032 12.6098 81.7053 12.7814 82.2809 13.137C82.8626 13.4864 83.1504 14.0136 83.1504 14.7124C83.1504 15.4113 82.8626 15.9446 82.2809 16.2941C81.6992 16.6374 80.9032 16.8151 79.8868 16.8151C78.8703 16.8151 78.0743 16.6435 77.4926 16.2941C76.9109 15.9446 76.6232 15.4236 76.6232 14.7124ZM81.7788 14.7124C81.7788 14.4182 81.6318 14.1791 81.3441 13.9952C81.0501 13.8113 80.5664 13.7193 79.8868 13.7193C79.2071 13.7193 78.7173 13.8113 78.4295 13.9952C78.1417 14.1791 77.9947 14.4182 77.9947 14.7124C77.9947 15.0067 78.1417 15.2519 78.4295 15.4358C78.7173 15.6197 79.201 15.7117 79.8868 15.7117C80.5725 15.7117 81.0501 15.6197 81.3441 15.4358C81.638 15.2519 81.7788 15.0128 81.7788 14.7124ZM83.1197 11.96C83.1197 12.1623 83.0463 12.3094 82.9054 12.4013C82.7646 12.4933 82.6115 12.5423 82.434 12.5423C82.2564 12.5423 82.1033 12.4933 81.9625 12.4013C81.8217 12.3094 81.7543 12.1561 81.7543 11.96V11.2366H80.5419C80.3766 11.2366 80.2603 11.1814 80.1807 11.0649C80.1072 10.9485 80.0643 10.8075 80.0643 10.642C80.0643 10.4764 80.1011 10.3477 80.1807 10.2312C80.2603 10.1147 80.3766 10.0596 80.5419 10.0596H81.7543V9.20134H80.6277C80.4623 9.20134 80.3399 9.14616 80.2664 9.02969C80.1929 8.91321 80.1562 8.77222 80.1562 8.6067C80.1562 8.44118 80.1929 8.31245 80.2664 8.19597C80.346 8.0795 80.4623 8.02433 80.6277 8.02433H81.7543V7.17222C81.7543 6.96992 81.8278 6.82279 81.9625 6.73084C82.1033 6.63889 82.2625 6.58984 82.434 6.58984C82.6054 6.58984 82.7646 6.63889 82.9054 6.73084C83.0463 6.82279 83.1197 6.96992 83.1197 7.17222V11.9661V11.96Z" fill="#615956"/>
<path d="M85.0975 15.1546C84.9322 15.1546 84.8097 15.0933 84.7301 14.9829C84.6505 14.8664 84.6138 14.7316 84.6138 14.5722C84.6138 14.4128 84.6505 14.2779 84.7301 14.1615C84.8097 14.045 84.9322 13.9898 85.0975 13.9898H88.4958V11.6051H89.8796V13.9898H93.2779C93.4432 13.9898 93.5657 14.045 93.6453 14.1615C93.7249 14.2779 93.7616 14.4128 93.7616 14.5722C93.7616 14.7316 93.7249 14.8664 93.6453 14.9829C93.5657 15.0994 93.4432 15.1546 93.2779 15.1546H85.1036H85.0975ZM86.6956 12.2672C86.3527 12.2672 86.1139 12.2059 85.9792 12.071C85.8445 11.9423 85.7833 11.7094 85.7833 11.3661V7.62046C85.7833 7.42429 85.8568 7.27717 85.9976 7.18521C86.1445 7.08713 86.3037 7.03809 86.4752 7.03809C86.6466 7.03809 86.8058 7.08713 86.9528 7.18521C87.0997 7.2833 87.1671 7.43042 87.1671 7.62046V8.66874H91.2083V7.62046C91.2083 7.42429 91.2818 7.27717 91.4226 7.18521C91.5696 7.08713 91.7288 7.03809 91.9002 7.03809C92.0717 7.03809 92.2309 7.08713 92.3778 7.18521C92.5187 7.2833 92.5921 7.43042 92.5921 7.62046V11.3661C92.5921 11.7032 92.5248 11.9423 92.3901 12.071C92.2554 12.1998 92.0166 12.2672 91.6737 12.2672H86.6956ZM90.9573 11.1086C91.1226 11.1086 91.2022 11.0289 91.2022 10.8634V9.83349H87.161V10.8634C87.161 11.0289 87.2406 11.1086 87.4059 11.1086H90.9573Z" fill="#615956"/>
<path d="M99.7129 12.3954V13.9893H103.105C103.27 13.9893 103.393 14.0445 103.472 14.1609C103.552 14.2774 103.589 14.4123 103.589 14.5717C103.589 14.731 103.552 14.8659 103.472 14.9824C103.393 15.0989 103.27 15.154 103.105 15.154H94.9308C94.7654 15.154 94.643 15.0927 94.5634 14.9824C94.4838 14.8659 94.4409 14.731 94.4409 14.5717C94.4409 14.4123 94.4838 14.2774 94.5634 14.1609C94.643 14.0445 94.7654 13.9893 94.9308 13.9893H98.3229V12.3954H99.7068H99.7129ZM95.6594 8.80921C95.4941 8.80921 95.3716 8.75404 95.292 8.63756C95.2124 8.52109 95.1757 8.38622 95.1757 8.22683C95.1757 8.06745 95.2185 7.93258 95.292 7.8161C95.3716 7.69963 95.4941 7.64446 95.6594 7.64446H98.3168V7.0253C98.3168 6.823 98.3903 6.67587 98.5311 6.57779C98.672 6.47971 98.8373 6.43066 99.021 6.43066C99.2047 6.43066 99.3761 6.47971 99.5108 6.57779C99.6516 6.67587 99.7251 6.823 99.7251 7.0253V7.64446H102.383C102.548 7.64446 102.67 7.70576 102.75 7.8161C102.83 7.93258 102.866 8.06745 102.866 8.22683C102.866 8.38622 102.823 8.52109 102.75 8.63756C102.67 8.75404 102.548 8.80921 102.383 8.80921H95.6594ZM95.9839 11.1816C95.9839 10.5625 96.2533 10.0904 96.7922 9.77779C97.3371 9.46515 98.078 9.30576 99.021 9.30576C99.4924 9.30576 99.9149 9.34867 100.288 9.42837C100.662 9.50806 100.98 9.62453 101.244 9.77779C101.507 9.93105 101.709 10.1272 101.85 10.3602C101.991 10.5931 102.058 10.869 102.058 11.1755C102.058 11.482 101.985 11.7579 101.85 11.9908C101.709 12.2238 101.507 12.4199 101.244 12.5732C100.98 12.7264 100.662 12.8429 100.288 12.9226C99.9149 13.0023 99.4924 13.0391 99.021 13.0391C98.078 13.0391 97.3371 12.8858 96.7922 12.5671C96.2533 12.2544 95.9839 11.7885 95.9839 11.1632M100.729 11.1816C100.729 10.9364 100.601 10.7402 100.344 10.5992C100.086 10.4521 99.6455 10.3847 99.021 10.3847C98.3964 10.3847 97.9555 10.4583 97.6984 10.5992C97.4473 10.7402 97.3187 10.9364 97.3187 11.1816C97.3187 11.4268 97.4473 11.623 97.6984 11.7701C97.9555 11.9111 98.3964 11.9847 99.021 11.9847C99.6455 11.9847 100.092 11.9111 100.344 11.7701C100.601 11.623 100.729 11.433 100.729 11.1816Z" fill="#615956"/>
<path d="M104.881 12.1564C104.716 12.1564 104.593 12.1012 104.52 11.9909C104.446 11.8805 104.41 11.7457 104.41 11.5863C104.41 11.4269 104.446 11.292 104.52 11.1817C104.593 11.0713 104.716 11.0162 104.881 11.0162C105.751 11.0162 106.669 11.0039 107.63 10.9733C108.586 10.9426 109.522 10.8752 110.441 10.7648C110.606 10.7464 110.735 10.7832 110.814 10.8874C110.9 10.9916 110.955 11.1204 110.967 11.2798C110.98 11.433 110.955 11.5679 110.894 11.6844C110.833 11.807 110.71 11.8744 110.551 11.8989C110.233 11.9418 109.884 11.9786 109.504 12.0154C109.124 12.0522 108.72 12.0767 108.292 12.0951V13.1434C108.292 13.3334 108.224 13.4683 108.09 13.548C107.955 13.6277 107.796 13.6706 107.6 13.6706C107.404 13.6706 107.251 13.6277 107.122 13.548C106.987 13.4683 106.92 13.3334 106.92 13.1434V12.1503C106.577 12.1625 106.228 12.1748 105.891 12.1748H104.887L104.881 12.1564ZM107.692 10.489C106.81 10.489 106.155 10.3173 105.714 9.98015C105.273 9.64299 105.053 9.18935 105.053 8.61923C105.053 8.04912 105.273 7.59548 105.714 7.25218C106.149 6.91502 106.81 6.74337 107.692 6.74337C108.573 6.74337 109.235 6.91502 109.669 7.25218C110.104 7.58935 110.331 8.04912 110.331 8.61923C110.331 9.18935 110.11 9.64299 109.669 9.98015C109.229 10.3173 108.567 10.489 107.692 10.489ZM112.517 15.3932C112.682 15.3932 112.804 15.4484 112.884 15.5648C112.964 15.6813 113 15.8162 113 15.9756C113 16.1349 112.964 16.2698 112.884 16.3863C112.804 16.5028 112.682 16.5579 112.517 16.5579H106.865C106.516 16.5579 106.277 16.4966 106.142 16.3618C106.008 16.233 105.94 15.9939 105.94 15.6568V14.3939C105.94 14.1916 106.008 14.0445 106.149 13.9526C106.289 13.8545 106.455 13.8116 106.645 13.8116C106.834 13.8116 106.981 13.8545 107.122 13.9526C107.263 14.0445 107.336 14.1916 107.336 14.3939V15.1418C107.336 15.3074 107.416 15.3932 107.588 15.3932H112.517ZM107.692 9.41004C108.157 9.41004 108.494 9.33647 108.708 9.20161C108.928 9.06061 109.033 8.87057 109.033 8.62536C109.033 8.38015 108.922 8.18398 108.708 8.04299C108.494 7.90199 108.157 7.83456 107.692 7.83456C107.226 7.83456 106.896 7.90199 106.675 8.04299C106.461 8.18398 106.351 8.38015 106.351 8.62536C106.351 8.87057 106.461 9.06061 106.675 9.20161C106.896 9.3426 107.232 9.41004 107.692 9.41004ZM111.39 13.4805H109.927C109.767 13.4805 109.651 13.4254 109.578 13.3211C109.504 13.2108 109.461 13.0821 109.461 12.9288C109.461 12.7756 109.498 12.6468 109.578 12.5365C109.651 12.4261 109.767 12.371 109.927 12.371H111.39V7.16636C111.39 6.96406 111.457 6.81693 111.598 6.72498C111.739 6.63303 111.898 6.58398 112.082 6.58398C112.266 6.58398 112.413 6.63303 112.553 6.72498C112.694 6.81693 112.762 6.97019 112.762 7.16636V13.7074C112.762 13.9097 112.694 14.0568 112.553 14.1487C112.413 14.2407 112.259 14.2897 112.082 14.2897C111.904 14.2897 111.739 14.2407 111.598 14.1487C111.457 14.0568 111.39 13.9097 111.39 13.7074V13.4805Z" fill="#615956"/>
<path d="M5.08122 14.3814C5.08122 14.412 5.08121 14.4427 5.06897 14.4794C4.971 17.2503 7.89171 19.5185 11.2778 19.5676C14.6638 19.6227 17.8601 17.4404 18.105 14.6695C18.105 14.6388 18.105 14.6082 18.105 14.5714C18.1662 13.5783 19.0663 12.7814 20.2909 12.7998C21.5155 12.8181 22.3054 13.6335 22.2564 14.6204C22.2564 14.6204 22.2564 14.6266 22.2564 14.6327V14.6511C21.9931 18.5745 18.6255 21.848 14.2107 22.8718C12.7657 23.1722 10.5185 23.5216 7.94069 22.7737C3.66066 21.6089 0.703225 18.2434 0.923655 14.3201V14.3078V14.2955C0.997132 13.3086 1.88498 12.5239 3.1096 12.5484C4.33421 12.5668 5.1302 13.3944 5.06897 14.3875" fill="#009FC6"/>
<path d="M5.73009 8.11013C5.49742 9.50783 4.17484 10.4458 2.7849 10.2128C1.39496 9.97986 0.452016 8.66185 0.684693 7.26415C0.917369 5.86645 2.23383 4.92852 3.62989 5.16147C5.01982 5.39442 5.96277 6.71243 5.73009 8.11013Z" fill="#F5A30A"/>
<path d="M15.2635 2.05984C15.1043 3.02229 14.1919 3.6721 13.2306 3.51271C12.2693 3.35333 11.6141 2.43992 11.7794 1.47746C11.9386 0.515011 12.851 -0.140928 13.8123 0.0245895C14.7736 0.183976 15.4227 1.09739 15.2635 2.05984Z" fill="#FBC500"/>
<path d="M12.4531 5.73798L18.2149 2.18856C18.2149 2.18856 21.2948 0.263655 19.6293 3.43913C18.5639 5.38243 15.6187 7.99392 15.8882 8.72955C16.1576 9.46519 18.2333 13.8545 17.3332 13.6583C16.427 13.456 13.5185 11.4391 13.5185 11.4391C13.5185 11.4391 12.3919 10.2131 12.3858 11.4453C12.3796 12.6774 11.9939 14.682 11.5591 14.7617C11.1305 14.8353 9.661 13.0146 8.7854 7.34411C7.91592 1.7104 8.66294 -1.06048 9.83857 1.06059C11.0142 3.18166 12.4531 5.73798 12.4531 5.73798Z" fill="#85BF24"/>
</svg>
