<svg width="34" height="34" viewBox="0 0 34 34" fill="none" xmlns="http://www.w3.org/2000/svg">
<path d="M30.5717 10.1915C30.4157 9.58627 30.1005 9.03382 29.6588 8.59161C29.2171 8.1494 28.665 7.83357 28.0599 7.67696C25.8655 7.08337 17 7.08337 17 7.08337C17 7.08337 8.13449 7.08337 5.94149 7.67837C5.33605 7.83442 4.78348 8.14984 4.34126 8.59182C3.89903 9.0338 3.5833 9.58619 3.42691 10.1915C2.83333 12.4299 2.83333 17 2.83333 17C2.83333 17 2.83333 21.6155 3.42833 23.81C3.74708 25.0425 4.70758 26.003 5.94149 26.3231C8.13449 26.9167 17 26.9167 17 26.9167C17 26.9167 25.8655 26.9167 28.0599 26.3217C28.6649 26.1656 29.2171 25.8503 29.659 25.4086C30.101 24.9669 30.4166 24.4149 30.5731 23.81C31.1667 21.6155 31.1667 17 31.1667 17C31.1667 17 31.1667 12.4299 30.5717 10.1915ZM14.1667 21.25V12.75L21.5248 17L14.1667 21.25Z" fill="black"/>
</svg>
